<svg id="svg" version="1.1" xmlns="http://www.w3.org/2000/svg" xmlns:xlink="http://www.w3.org/1999/xlink" width="400" height="400" viewBox="0, 0, 400,400"><g id="svgg"><path id="path0" d="M83.600 0.293 C 82.830 0.383,82.029 0.624,81.820 0.829 C 81.611 1.033,80.846 1.200,80.120 1.200 C 79.394 1.200,78.800 1.380,78.800 1.600 C 78.800 1.820,78.271 2.000,77.624 2.000 C 76.977 2.000,76.336 2.180,76.200 2.400 C 76.064 2.620,75.524 2.800,75.000 2.800 C 74.476 2.800,73.936 2.980,73.800 3.200 C 73.664 3.420,73.113 3.600,72.576 3.600 C 72.039 3.600,71.600 3.780,71.600 4.000 C 71.600 4.220,71.060 4.400,70.400 4.400 C 69.740 4.400,69.200 4.580,69.200 4.800 C 69.200 5.020,68.761 5.200,68.224 5.200 C 67.687 5.200,67.136 5.380,67.000 5.600 C 66.864 5.820,66.403 6.000,65.976 6.000 C 65.549 6.000,65.200 6.180,65.200 6.400 C 65.200 6.620,64.840 6.800,64.400 6.800 C 63.960 6.800,63.600 6.980,63.600 7.200 C 63.600 7.420,63.251 7.600,62.824 7.600 C 62.397 7.600,61.936 7.780,61.800 8.000 C 61.664 8.220,61.203 8.400,60.776 8.400 C 60.349 8.400,60.000 8.580,60.000 8.800 C 60.000 9.020,59.640 9.200,59.200 9.200 C 58.760 9.200,58.400 9.366,58.400 9.568 C 58.400 9.771,57.860 10.055,57.200 10.200 C 56.540 10.345,56.000 10.629,56.000 10.832 C 56.000 11.034,55.640 11.200,55.200 11.200 C 54.760 11.200,54.400 11.359,54.400 11.553 C 54.400 11.748,54.085 12.007,53.700 12.129 C 53.013 12.346,50.794 13.605,50.400 14.001 C 50.290 14.111,49.705 14.456,49.100 14.768 C 48.495 15.080,48.000 15.485,48.000 15.668 C 48.000 15.850,47.809 16.000,47.577 16.000 C 47.113 16.000,44.185 18.184,43.153 19.300 C 42.797 19.685,42.288 20.000,42.022 20.000 C 41.755 20.000,40.846 20.720,40.000 21.600 C 39.154 22.480,38.293 23.200,38.085 23.200 C 37.877 23.200,36.711 24.145,35.494 25.300 C 34.277 26.455,32.318 28.309,31.141 29.420 C 28.497 31.914,24.800 36.052,24.800 36.517 C 24.800 36.707,24.080 37.554,23.200 38.400 C 22.320 39.246,21.600 40.140,21.600 40.387 C 21.600 40.634,21.163 41.273,20.629 41.807 C 20.095 42.341,19.336 43.323,18.943 43.989 C 18.549 44.655,18.086 45.200,17.914 45.200 C 17.741 45.200,17.600 45.470,17.600 45.800 C 17.600 46.130,17.450 46.400,17.268 46.400 C 17.085 46.400,16.680 46.895,16.368 47.500 C 16.056 48.105,15.711 48.690,15.601 48.800 C 15.205 49.194,13.946 51.413,13.729 52.100 C 13.607 52.485,13.348 52.800,13.153 52.800 C 12.959 52.800,12.800 53.160,12.800 53.600 C 12.800 54.040,12.620 54.400,12.400 54.400 C 12.180 54.400,12.000 54.760,12.000 55.200 C 12.000 55.640,11.864 56.000,11.698 56.000 C 11.531 56.000,11.149 56.585,10.848 57.300 C 10.547 58.015,10.053 59.123,9.750 59.761 C 9.448 60.400,9.200 61.165,9.200 61.461 C 9.200 61.758,9.020 62.000,8.800 62.000 C 8.580 62.000,8.400 62.360,8.400 62.800 C 8.400 63.240,8.220 63.600,8.000 63.600 C 7.780 63.600,7.600 64.039,7.600 64.576 C 7.600 65.113,7.420 65.664,7.200 65.800 C 6.980 65.936,6.800 66.397,6.800 66.824 C 6.800 67.251,6.620 67.600,6.400 67.600 C 6.180 67.600,6.000 68.140,6.000 68.800 C 6.000 69.460,5.820 70.000,5.600 70.000 C 5.380 70.000,5.200 70.540,5.200 71.200 C 5.200 71.860,5.020 72.400,4.800 72.400 C 4.580 72.400,4.400 72.940,4.400 73.600 C 4.400 74.260,4.220 74.800,4.000 74.800 C 3.780 74.800,3.600 75.340,3.600 76.000 C 3.600 76.660,3.420 77.200,3.200 77.200 C 2.980 77.200,2.800 77.819,2.800 78.576 C 2.800 79.333,2.620 80.064,2.400 80.200 C 2.180 80.336,2.000 81.146,2.000 82.000 C 2.000 82.854,1.820 83.664,1.600 83.800 C 1.380 83.936,1.200 84.811,1.200 85.744 C 1.200 86.677,0.975 87.665,0.700 87.940 C -0.035 88.675,-0.035 279.325,0.700 280.060 C 0.975 280.335,1.200 281.323,1.200 282.256 C 1.200 283.189,1.380 284.064,1.600 284.200 C 1.820 284.336,2.000 285.146,2.000 286.000 C 2.000 286.854,2.180 287.664,2.400 287.800 C 2.620 287.936,2.800 288.667,2.800 289.424 C 2.800 290.181,2.980 290.800,3.200 290.800 C 3.420 290.800,3.600 291.340,3.600 292.000 C 3.600 292.660,3.780 293.200,4.000 293.200 C 4.220 293.200,4.400 293.740,4.400 294.400 C 4.400 295.060,4.580 295.600,4.800 295.600 C 5.020 295.600,5.200 296.140,5.200 296.800 C 5.200 297.460,5.380 298.000,5.600 298.000 C 5.820 298.000,6.000 298.540,6.000 299.200 C 6.000 299.860,6.180 300.400,6.400 300.400 C 6.620 300.400,6.800 300.672,6.800 301.005 C 6.800 301.338,6.980 301.968,7.200 302.405 C 7.420 302.842,7.780 303.558,8.000 303.995 C 8.220 304.432,8.400 305.062,8.400 305.395 C 8.400 305.728,8.580 306.000,8.800 306.000 C 9.020 306.000,9.200 306.360,9.200 306.800 C 9.200 307.240,9.380 307.600,9.600 307.600 C 9.820 307.600,10.000 307.869,10.000 308.197 C 10.000 309.031,11.323 312.000,11.694 312.000 C 11.862 312.000,12.000 312.360,12.000 312.800 C 12.000 313.240,12.180 313.600,12.400 313.600 C 12.620 313.600,12.800 313.960,12.800 314.400 C 12.800 314.840,12.959 315.200,13.153 315.200 C 13.348 315.200,13.607 315.515,13.729 315.900 C 13.946 316.587,15.205 318.806,15.601 319.200 C 15.711 319.310,16.056 319.895,16.368 320.500 C 16.680 321.105,17.085 321.600,17.268 321.600 C 17.450 321.600,17.600 321.870,17.600 322.200 C 17.600 322.530,17.741 322.800,17.914 322.800 C 18.086 322.800,18.549 323.345,18.943 324.011 C 19.336 324.677,20.095 325.659,20.629 326.193 C 21.163 326.727,21.600 327.330,21.600 327.534 C 21.600 327.737,22.320 328.645,23.200 329.552 C 24.080 330.459,24.800 331.381,24.800 331.600 C 24.800 331.820,24.980 332.000,25.200 332.000 C 25.420 332.000,25.600 332.175,25.600 332.389 C 25.600 333.331,36.276 344.000,37.219 344.000 C 37.428 344.000,37.600 344.180,37.600 344.400 C 37.600 344.620,37.780 344.800,38.000 344.800 C 38.219 344.800,39.141 345.520,40.048 346.400 C 40.955 347.280,41.863 348.000,42.066 348.000 C 42.270 348.000,42.873 348.437,43.407 348.971 C 43.941 349.505,44.923 350.264,45.589 350.657 C 46.255 351.051,46.800 351.514,46.800 351.686 C 46.800 351.859,47.070 352.000,47.400 352.000 C 47.730 352.000,48.000 352.150,48.000 352.332 C 48.000 352.515,48.495 352.920,49.100 353.232 C 49.705 353.544,50.317 353.960,50.460 354.158 C 51.069 355.000,52.000 353.995,52.000 352.496 C 52.000 351.342,51.167 349.410,48.611 344.632 C 46.746 341.147,44.992 337.780,44.713 337.148 C 44.433 336.517,44.069 336.000,43.902 336.000 C 43.736 336.000,43.600 335.655,43.600 335.233 C 43.600 334.812,43.464 334.407,43.298 334.333 C 43.132 334.260,42.371 332.940,41.606 331.400 C 40.842 329.860,40.123 328.510,40.008 328.400 C 39.894 328.290,39.378 327.390,38.861 326.400 C 38.345 325.410,37.008 322.890,35.890 320.800 C 34.772 318.710,33.034 315.380,32.028 313.400 C 31.023 311.420,30.109 309.710,29.998 309.600 C 29.886 309.490,29.211 308.275,28.498 306.900 C 27.784 305.525,26.616 303.275,25.902 301.900 C 25.189 300.525,24.513 299.310,24.400 299.200 C 23.946 298.757,21.600 293.850,21.600 293.344 C 21.600 292.896,24.089 292.800,35.754 292.800 L 49.908 292.800 54.430 301.700 C 56.917 306.595,60.206 313.080,61.739 316.112 C 63.273 319.144,64.705 321.565,64.922 321.493 C 65.139 321.420,67.313 317.410,69.753 312.580 C 72.193 307.751,74.327 303.740,74.495 303.667 C 74.663 303.593,74.800 303.188,74.800 302.767 C 74.800 302.345,74.935 301.996,75.100 301.990 C 75.265 301.985,76.390 299.919,77.600 297.400 L 79.800 292.820 93.900 292.810 L 108.000 292.800 108.000 293.767 C 108.000 294.298,107.865 294.793,107.700 294.867 C 107.535 294.940,106.575 296.620,105.566 298.600 C 103.798 302.070,101.441 306.533,98.488 312.000 C 97.716 313.430,96.526 315.680,95.844 317.000 C 95.163 318.320,94.506 319.490,94.384 319.600 C 94.263 319.710,93.489 321.150,92.663 322.800 C 91.838 324.450,90.527 326.970,89.749 328.400 C 87.467 332.599,84.001 339.155,82.244 342.600 C 81.346 344.360,80.518 345.890,80.403 346.000 C 80.289 346.110,79.611 347.350,78.898 348.756 L 77.600 351.312 77.600 358.241 C 77.600 365.923,77.892 366.800,80.452 366.800 C 81.057 366.800,81.664 366.980,81.800 367.200 C 81.936 367.420,82.746 367.600,83.600 367.600 C 84.454 367.600,85.264 367.780,85.400 368.000 C 85.536 368.220,86.537 368.400,87.624 368.400 C 88.711 368.400,89.600 368.580,89.600 368.800 C 89.600 369.021,90.640 369.200,91.920 369.200 C 93.196 369.200,94.411 369.370,94.620 369.578 C 95.010 369.966,100.352 370.255,113.900 370.624 C 122.579 370.859,122.643 370.835,120.500 368.042 C 119.895 367.253,119.203 366.246,118.963 365.804 C 118.722 365.362,118.166 364.370,117.727 363.600 C 114.233 357.469,113.952 354.203,114.086 321.200 L 114.200 293.000 126.800 293.000 L 139.400 293.000 139.600 321.715 C 139.729 340.201,139.943 350.531,140.201 350.715 C 140.421 350.872,140.836 351.450,141.123 352.000 C 142.175 354.016,145.554 356.800,146.948 356.800 C 147.281 356.800,147.664 356.980,147.800 357.200 C 148.110 357.701,153.767 357.729,154.705 357.234 C 155.087 357.032,156.055 356.583,156.855 356.236 C 159.577 355.056,161.568 352.535,162.751 348.772 C 163.065 347.774,163.200 339.126,163.200 320.072 L 163.200 292.800 175.800 292.800 L 188.400 292.800 188.400 321.876 C 188.400 341.161,188.253 351.768,187.963 353.376 C 187.144 357.915,184.444 365.547,183.519 365.933 C 183.343 366.007,183.200 366.372,183.200 366.745 C 183.200 367.118,182.840 367.683,182.400 368.000 C 181.960 368.317,181.600 368.845,181.600 369.172 C 181.600 369.504,182.308 368.986,183.200 368.000 C 184.080 367.028,184.800 366.088,184.800 365.912 C 184.800 365.737,185.340 365.028,186.000 364.337 C 186.660 363.646,187.200 362.904,187.200 362.688 C 187.200 362.471,187.515 362.003,187.900 361.647 C 188.285 361.291,189.271 360.100,190.091 359.000 C 190.911 357.900,191.766 356.783,191.991 356.517 C 192.216 356.251,192.400 355.935,192.400 355.813 C 192.400 355.692,192.940 355.028,193.600 354.337 C 194.260 353.646,194.800 352.910,194.800 352.701 C 194.800 352.492,195.340 351.817,196.000 351.200 C 196.660 350.583,197.200 349.863,197.200 349.600 C 197.200 349.337,197.740 348.617,198.400 348.000 C 199.060 347.383,199.600 346.719,199.600 346.524 C 199.600 346.328,200.320 345.372,201.200 344.400 C 202.080 343.428,202.800 342.498,202.800 342.334 C 202.800 342.170,203.205 341.615,203.700 341.100 C 204.763 339.995,206.843 337.361,207.373 336.451 C 207.578 336.098,207.897 335.627,208.081 335.405 C 208.265 335.182,208.862 334.460,209.407 333.800 C 209.953 333.140,210.399 332.463,210.400 332.296 C 210.400 332.129,210.940 331.428,211.600 330.737 C 212.260 330.046,212.800 329.310,212.800 329.101 C 212.800 328.892,213.340 328.217,214.000 327.600 C 214.660 326.983,215.200 326.283,215.200 326.043 C 215.200 325.803,215.740 325.091,216.400 324.460 C 217.060 323.829,217.600 323.174,217.600 323.004 C 217.600 322.833,217.924 322.403,218.319 322.047 C 218.714 321.691,219.474 320.770,220.008 320.000 C 220.541 319.230,221.387 318.152,221.889 317.604 C 222.390 317.056,222.800 316.471,222.800 316.304 C 222.800 316.137,217.691 316.000,211.447 316.000 L 200.093 316.000 199.852 315.100 C 199.536 313.921,199.528 294.254,199.843 293.433 C 200.049 292.895,200.980 292.800,206.043 292.800 C 212.629 292.800,212.893 292.677,210.900 290.538 C 210.295 289.888,209.454 288.737,209.030 287.978 C 208.607 287.220,208.148 286.510,208.011 286.400 C 207.874 286.290,207.329 285.570,206.800 284.800 C 206.271 284.030,205.738 283.310,205.616 283.200 C 205.493 283.090,204.944 282.326,204.396 281.503 C 203.848 280.679,203.265 280.004,203.100 280.003 C 202.935 280.001,202.800 279.810,202.800 279.578 C 202.800 279.346,202.261 278.581,201.602 277.878 C 200.943 277.175,200.403 276.457,200.402 276.282 C 200.401 276.107,199.950 275.514,199.400 274.964 C 198.850 274.414,198.400 273.800,198.400 273.600 C 198.400 273.400,197.950 272.786,197.400 272.236 C 196.850 271.686,196.400 271.075,196.400 270.878 C 196.400 270.680,195.860 269.954,195.200 269.263 C 194.540 268.572,194.000 267.852,194.000 267.663 C 194.000 267.474,193.479 266.773,192.842 266.107 C 192.205 265.441,191.571 264.538,191.432 264.100 C 191.293 263.663,190.824 262.984,190.390 262.591 C 189.955 262.198,189.600 261.716,189.600 261.520 C 189.600 261.324,189.150 260.714,188.600 260.164 C 188.050 259.614,187.600 259.000,187.600 258.800 C 187.600 258.600,187.150 257.986,186.600 257.436 C 186.050 256.886,185.600 256.275,185.600 256.078 C 185.600 255.880,185.060 255.154,184.400 254.463 C 183.740 253.772,183.200 253.052,183.200 252.863 C 183.200 252.674,182.660 251.954,182.000 251.263 C 181.340 250.572,180.800 249.852,180.800 249.663 C 180.800 249.474,180.260 248.754,179.600 248.063 C 178.940 247.372,178.400 246.626,178.400 246.404 C 178.400 246.182,178.220 246.000,178.000 246.000 C 177.780 246.000,177.600 245.822,177.600 245.605 C 177.600 245.240,176.855 244.205,175.752 243.036 C 175.505 242.775,175.021 242.030,174.675 241.380 C 174.330 240.731,173.586 239.677,173.023 239.038 C 172.461 238.399,172.000 237.732,172.000 237.556 C 172.000 237.380,171.550 236.786,171.000 236.236 C 170.450 235.686,170.000 235.075,170.000 234.878 C 170.000 234.680,169.460 233.954,168.800 233.263 C 168.140 232.572,167.600 231.852,167.600 231.663 C 167.600 231.474,167.060 230.754,166.400 230.063 C 165.740 229.372,165.200 228.665,165.200 228.492 C 165.200 228.319,164.840 227.917,164.400 227.600 C 163.960 227.283,163.600 226.820,163.600 226.571 C 163.600 226.322,163.060 225.554,162.400 224.863 C 161.740 224.172,161.200 223.452,161.200 223.263 C 161.200 223.074,160.660 222.354,160.000 221.663 C 159.340 220.972,158.800 220.179,158.800 219.900 C 158.800 219.620,158.375 218.933,157.855 218.373 C 156.465 216.874,155.779 215.474,156.343 215.286 C 156.594 215.202,156.800 214.788,156.800 214.367 C 156.800 213.945,156.947 213.600,157.126 213.600 C 157.524 213.600,158.800 210.999,158.800 210.186 C 158.800 209.864,158.946 209.600,159.125 209.600 C 159.304 209.600,159.698 208.970,160.000 208.200 C 160.302 207.430,160.696 206.800,160.875 206.800 C 161.054 206.800,161.200 206.440,161.200 206.000 C 161.200 205.560,161.380 205.200,161.600 205.200 C 161.820 205.200,162.000 204.855,162.000 204.433 C 162.000 204.012,162.135 203.607,162.300 203.533 C 162.676 203.366,163.975 201.236,164.271 200.300 C 164.393 199.915,164.652 199.600,164.847 199.600 C 165.041 199.600,165.200 199.240,165.200 198.800 C 165.200 198.360,165.380 198.000,165.600 198.000 C 165.820 198.000,166.000 197.640,166.000 197.200 C 166.000 196.760,166.180 196.400,166.400 196.400 C 166.620 196.400,166.800 196.040,166.800 195.600 C 166.800 195.160,166.980 194.800,167.200 194.800 C 167.420 194.800,167.600 194.440,167.600 194.000 C 167.600 193.560,167.759 193.200,167.953 193.200 C 168.148 193.200,168.407 192.885,168.529 192.500 C 168.752 191.796,170.019 189.572,170.410 189.200 C 170.525 189.090,171.421 187.380,172.400 185.400 C 173.379 183.420,174.292 181.710,174.429 181.600 C 174.565 181.490,174.798 180.905,174.946 180.300 C 175.094 179.695,175.392 179.200,175.608 179.200 C 175.823 179.200,176.000 178.840,176.000 178.400 C 176.000 177.960,176.180 177.600,176.400 177.600 C 176.620 177.600,176.800 177.240,176.800 176.800 C 176.800 176.360,176.946 176.000,177.125 176.000 C 177.304 176.000,177.698 175.370,178.000 174.600 C 178.302 173.830,178.696 173.200,178.875 173.200 C 179.054 173.200,179.200 172.840,179.200 172.400 C 179.200 171.960,179.380 171.600,179.600 171.600 C 179.820 171.600,180.000 171.255,180.000 170.833 C 180.000 170.412,180.135 170.007,180.300 169.933 C 180.676 169.766,181.975 167.636,182.271 166.700 C 182.393 166.315,182.652 166.000,182.847 166.000 C 183.041 166.000,183.200 165.640,183.200 165.200 C 183.200 164.760,183.380 164.400,183.600 164.400 C 183.820 164.400,184.000 164.040,184.000 163.600 C 184.000 163.160,184.180 162.800,184.400 162.800 C 184.620 162.800,184.800 162.440,184.800 162.000 C 184.800 161.560,184.980 161.200,185.200 161.200 C 185.420 161.200,185.600 160.840,185.600 160.400 C 185.600 159.960,185.780 159.600,186.000 159.600 C 186.220 159.600,186.400 159.345,186.400 159.033 C 186.400 158.722,186.535 158.407,186.700 158.333 C 187.299 158.067,191.597 149.615,191.599 148.700 C 191.599 148.315,191.780 148.000,192.000 148.000 C 192.220 148.000,192.400 147.764,192.400 147.475 C 192.400 147.187,192.760 146.564,193.200 146.092 C 193.640 145.620,194.000 144.956,194.000 144.617 C 194.000 144.278,194.180 144.000,194.400 144.000 C 194.620 144.000,194.800 143.640,194.800 143.200 C 194.800 142.760,194.946 142.400,195.125 142.400 C 195.304 142.400,195.698 141.770,196.000 141.000 C 196.302 140.230,196.696 139.600,196.875 139.600 C 197.054 139.600,197.200 139.240,197.200 138.800 C 197.200 138.360,197.380 138.000,197.600 138.000 C 197.820 138.000,198.000 137.655,198.000 137.233 C 198.000 136.812,198.135 136.407,198.300 136.333 C 198.676 136.166,199.975 134.036,200.271 133.100 C 200.393 132.715,200.652 132.400,200.847 132.400 C 201.041 132.400,201.200 132.040,201.200 131.600 C 201.200 131.160,201.380 130.800,201.600 130.800 C 201.820 130.800,202.000 130.476,202.000 130.080 C 202.000 129.684,202.212 129.148,202.471 128.889 C 202.833 128.527,202.740 128.242,202.071 127.662 C 201.592 127.246,201.200 126.652,201.200 126.341 C 201.200 126.031,200.840 125.517,200.400 125.200 C 199.960 124.883,199.600 124.303,199.600 123.912 C 199.600 123.520,199.420 123.200,199.200 123.200 C 198.980 123.200,198.800 122.964,198.800 122.675 C 198.800 122.387,198.440 121.764,198.000 121.292 C 197.560 120.820,197.200 120.238,197.200 120.000 C 197.200 119.762,196.840 119.180,196.400 118.708 C 195.960 118.236,195.600 117.613,195.600 117.325 C 195.600 117.036,195.420 116.800,195.200 116.800 C 194.980 116.800,194.800 116.564,194.800 116.275 C 194.800 115.987,194.440 115.364,194.000 114.892 C 193.560 114.420,193.200 113.756,193.200 113.417 C 193.200 113.078,193.050 112.800,192.867 112.800 C 192.683 112.800,192.015 111.810,191.382 110.600 C 190.749 109.390,190.089 108.400,189.916 108.400 C 189.742 108.400,189.600 108.122,189.600 107.783 C 189.600 107.444,189.240 106.780,188.800 106.308 C 188.360 105.836,188.000 105.213,188.000 104.925 C 188.000 104.636,187.820 104.400,187.600 104.400 C 187.380 104.400,187.200 104.164,187.200 103.875 C 187.200 103.587,186.840 102.964,186.400 102.492 C 185.960 102.020,185.600 101.438,185.600 101.200 C 185.600 100.962,185.240 100.380,184.800 99.908 C 184.360 99.436,184.000 98.813,184.000 98.525 C 184.000 98.236,183.820 98.000,183.600 98.000 C 183.380 98.000,183.200 97.764,183.200 97.475 C 183.200 97.187,182.885 96.602,182.500 96.175 C 182.115 95.749,181.546 94.908,181.236 94.307 C 180.926 93.705,180.341 92.858,179.936 92.423 C 179.531 91.989,179.200 91.396,179.200 91.105 C 179.200 90.814,178.840 90.317,178.400 90.000 C 177.960 89.683,177.600 89.103,177.600 88.712 C 177.600 88.320,177.420 88.000,177.200 88.000 C 176.980 88.000,176.800 87.764,176.800 87.475 C 176.800 87.187,176.469 86.596,176.065 86.162 C 175.661 85.728,175.207 84.884,175.057 84.287 C 174.907 83.689,174.608 83.200,174.392 83.200 C 174.177 83.200,174.000 83.007,174.000 82.772 C 174.000 82.537,173.460 81.559,172.800 80.600 C 172.140 79.641,171.600 78.703,171.600 78.516 C 171.600 78.329,171.240 77.917,170.800 77.600 C 170.360 77.283,170.000 76.703,170.000 76.312 C 170.000 75.920,169.842 75.600,169.649 75.600 C 169.455 75.600,169.073 75.060,168.800 74.400 C 168.527 73.740,168.145 73.200,167.951 73.200 C 167.758 73.200,167.600 72.880,167.600 72.488 C 167.600 72.097,167.240 71.517,166.800 71.200 C 166.360 70.883,166.000 70.303,166.000 69.912 C 166.000 69.520,165.820 69.200,165.600 69.200 C 165.380 69.200,165.200 68.964,165.200 68.675 C 165.200 68.387,164.840 67.764,164.400 67.292 C 163.960 66.820,163.600 66.196,163.600 65.905 C 163.600 65.614,163.240 65.117,162.800 64.800 C 162.360 64.483,162.000 63.903,162.000 63.512 C 162.000 63.120,161.820 62.800,161.600 62.800 C 161.380 62.800,161.200 62.530,161.200 62.200 C 161.200 61.870,161.020 61.600,160.800 61.600 C 160.580 61.600,160.400 61.330,160.400 61.000 C 160.400 60.670,160.220 60.400,160.000 60.400 C 159.780 60.400,159.600 60.130,159.600 59.800 C 159.600 59.470,159.465 59.200,159.300 59.199 C 159.135 59.199,158.474 58.119,157.830 56.799 C 157.187 55.480,156.512 54.400,156.330 54.400 C 156.149 54.400,156.000 54.164,156.000 53.875 C 156.000 53.587,155.640 52.964,155.200 52.492 C 154.760 52.020,154.400 51.356,154.400 51.017 C 154.400 50.678,154.220 50.400,154.000 50.400 C 153.780 50.400,153.600 50.164,153.600 49.875 C 153.600 49.587,153.240 48.964,152.800 48.492 C 152.360 48.020,152.000 47.523,152.000 47.389 C 152.000 47.254,151.460 46.359,150.800 45.400 C 150.140 44.441,149.600 43.503,149.600 43.316 C 149.600 43.129,149.240 42.717,148.800 42.400 C 148.360 42.083,148.000 41.503,148.000 41.112 C 148.000 40.720,147.850 40.400,147.668 40.400 C 146.663 40.400,146.274 38.403,147.134 37.657 C 147.610 37.244,148.000 36.747,148.001 36.553 C 148.001 36.359,148.541 35.570,149.200 34.800 C 149.859 34.030,150.399 33.215,150.399 32.988 C 150.400 32.762,150.760 32.317,151.200 32.000 C 151.640 31.683,152.000 31.185,152.000 30.894 C 152.000 30.602,152.450 29.914,153.000 29.364 C 153.550 28.814,154.000 28.200,154.000 28.000 C 154.000 27.800,154.450 27.186,155.000 26.636 C 155.550 26.086,156.000 25.540,156.000 25.422 C 156.000 25.231,158.158 22.198,159.205 20.917 C 159.422 20.651,159.600 20.196,159.600 19.905 C 159.600 19.614,159.960 19.117,160.400 18.800 C 160.840 18.483,161.200 17.993,161.200 17.712 C 161.200 17.430,161.380 17.200,161.600 17.200 C 161.820 17.200,162.000 16.970,162.000 16.688 C 162.000 16.407,162.360 15.917,162.800 15.600 C 163.240 15.283,163.600 14.785,163.600 14.494 C 163.600 14.202,164.050 13.514,164.600 12.964 C 165.150 12.414,165.600 11.800,165.600 11.600 C 165.600 11.400,166.050 10.786,166.600 10.236 C 167.150 9.686,167.600 9.131,167.600 9.001 C 167.600 8.872,167.960 8.380,168.400 7.908 C 168.840 7.436,169.200 6.813,169.200 6.525 C 169.200 6.236,169.341 6.000,169.514 6.000 C 169.686 6.000,170.143 5.467,170.528 4.815 C 170.913 4.163,171.468 3.389,171.762 3.095 C 172.056 2.801,172.594 1.985,172.958 1.280 L 173.621 0.000 129.310 0.064 C 104.940 0.099,84.370 0.202,83.600 0.293 M90.400 58.391 C 92.490 58.656,94.371 59.037,94.580 59.237 C 94.789 59.436,95.464 59.600,96.080 59.600 C 96.696 59.600,97.200 59.780,97.200 60.000 C 97.200 60.220,97.560 60.400,98.000 60.400 C 98.440 60.400,98.800 60.580,98.800 60.800 C 98.800 61.020,99.034 61.200,99.320 61.200 C 100.056 61.200,101.993 62.141,101.997 62.500 C 101.999 62.665,102.360 62.800,102.800 62.800 C 103.240 62.800,103.600 62.980,103.600 63.200 C 103.600 63.420,103.920 63.600,104.312 63.600 C 104.703 63.600,105.283 63.960,105.600 64.400 C 105.917 64.840,106.411 65.200,106.698 65.200 C 107.518 65.200,116.000 73.870,116.000 74.708 C 116.000 74.882,116.360 75.283,116.800 75.600 C 117.240 75.917,117.600 76.482,117.600 76.855 C 117.600 77.228,117.735 77.593,117.900 77.667 C 118.332 77.859,120.000 81.172,120.000 81.838 C 120.000 82.147,120.180 82.400,120.400 82.400 C 120.620 82.400,120.800 82.760,120.800 83.200 C 120.800 83.640,120.980 84.000,121.200 84.000 C 121.420 84.000,121.600 84.540,121.600 85.200 C 121.600 85.860,121.780 86.400,122.000 86.400 C 122.220 86.400,122.400 87.019,122.400 87.776 C 122.400 88.533,122.580 89.264,122.800 89.400 C 123.020 89.536,123.200 90.807,123.200 92.224 C 123.200 93.675,123.375 94.800,123.600 94.800 C 123.828 94.800,124.000 95.992,124.000 97.576 C 124.000 99.103,123.820 100.464,123.600 100.600 C 123.380 100.736,123.200 102.007,123.200 103.424 C 123.200 104.875,123.025 106.000,122.800 106.000 C 122.580 106.000,122.400 106.720,122.400 107.600 C 122.400 108.480,122.220 109.200,122.000 109.200 C 121.780 109.200,121.600 109.639,121.600 110.176 C 121.600 110.713,121.420 111.264,121.200 111.400 C 120.980 111.536,120.800 111.997,120.800 112.424 C 120.800 112.851,120.620 113.200,120.400 113.200 C 120.180 113.200,120.000 113.453,120.000 113.762 C 120.000 114.519,118.335 117.600,117.926 117.600 C 117.747 117.600,117.600 117.960,117.600 118.400 C 117.600 118.840,117.450 119.200,117.268 119.200 C 117.085 119.200,116.680 119.688,116.368 120.284 C 115.192 122.529,107.883 130.000,106.862 130.000 C 106.691 130.000,106.193 130.315,105.755 130.700 C 104.834 131.510,103.648 132.224,101.400 133.320 C 100.520 133.749,99.487 134.258,99.105 134.450 C 98.723 134.643,98.138 134.800,97.805 134.800 C 97.472 134.800,97.200 134.980,97.200 135.200 C 97.200 135.420,96.761 135.600,96.224 135.600 C 95.687 135.600,95.136 135.780,95.000 136.000 C 94.864 136.220,94.133 136.400,93.376 136.400 C 92.619 136.400,92.000 136.580,92.000 136.800 C 92.000 137.025,90.875 137.200,89.424 137.200 C 88.007 137.200,86.736 137.380,86.600 137.600 C 86.278 138.121,80.922 138.121,80.600 137.600 C 80.464 137.380,79.193 137.200,77.776 137.200 C 76.325 137.200,75.200 137.025,75.200 136.800 C 75.200 136.580,74.570 136.400,73.800 136.400 C 73.030 136.400,72.400 136.220,72.400 136.000 C 72.400 135.780,71.860 135.600,71.200 135.600 C 70.540 135.600,70.000 135.420,70.000 135.200 C 70.000 134.980,69.728 134.800,69.395 134.800 C 69.062 134.800,68.477 134.638,68.095 134.440 C 67.713 134.243,66.545 133.658,65.500 133.141 C 64.455 132.624,63.600 132.066,63.600 131.901 C 63.600 131.735,63.240 131.600,62.800 131.600 C 62.360 131.600,62.000 131.450,62.000 131.268 C 62.000 131.085,61.512 130.680,60.916 130.368 C 59.591 129.674,57.627 127.978,55.443 125.642 C 54.539 124.676,53.215 123.287,52.500 122.556 C 51.785 121.825,51.200 120.990,51.200 120.702 C 51.200 120.413,50.840 119.917,50.400 119.600 C 49.960 119.283,49.600 118.718,49.600 118.345 C 49.600 117.972,49.465 117.607,49.300 117.533 C 48.876 117.345,46.400 112.401,46.400 111.744 C 46.400 111.445,46.220 111.200,46.000 111.200 C 45.780 111.200,45.600 110.671,45.600 110.024 C 45.600 109.377,45.420 108.736,45.200 108.600 C 44.980 108.464,44.800 107.834,44.800 107.200 C 44.800 106.566,44.620 105.936,44.400 105.800 C 44.180 105.664,44.000 104.383,44.000 102.953 C 44.000 101.321,43.851 100.445,43.600 100.600 C 43.348 100.756,43.200 99.812,43.200 98.047 C 43.200 96.507,43.380 95.136,43.600 95.000 C 43.820 94.864,44.000 93.694,44.000 92.400 C 44.000 91.106,44.180 89.936,44.400 89.800 C 44.620 89.664,44.800 88.933,44.800 88.176 C 44.800 87.419,44.980 86.800,45.200 86.800 C 45.420 86.800,45.600 86.271,45.600 85.624 C 45.600 84.977,45.780 84.336,46.000 84.200 C 46.220 84.064,46.400 83.603,46.400 83.176 C 46.400 82.749,46.580 82.400,46.800 82.400 C 47.020 82.400,47.200 82.040,47.200 81.600 C 47.200 81.160,47.380 80.800,47.600 80.800 C 47.820 80.800,48.000 80.440,48.000 80.000 C 48.000 79.560,48.180 79.200,48.400 79.200 C 48.620 79.200,48.800 78.840,48.800 78.400 C 48.800 77.960,48.980 77.600,49.200 77.600 C 49.420 77.600,49.600 77.280,49.600 76.888 C 49.600 76.497,49.960 75.917,50.400 75.600 C 50.840 75.283,51.200 74.868,51.200 74.678 C 51.200 73.962,59.866 65.200,60.574 65.200 C 60.821 65.200,61.283 64.840,61.600 64.400 C 61.917 63.960,62.497 63.600,62.888 63.600 C 63.280 63.600,63.600 63.420,63.600 63.200 C 63.600 62.980,63.960 62.800,64.400 62.800 C 64.840 62.800,65.200 62.620,65.200 62.400 C 65.200 62.180,65.560 62.000,66.000 62.000 C 66.440 62.000,66.800 61.820,66.800 61.600 C 66.800 61.380,67.160 61.200,67.600 61.200 C 68.040 61.200,68.400 61.020,68.400 60.800 C 68.400 60.580,68.760 60.400,69.200 60.400 C 69.640 60.400,70.000 60.220,70.000 60.000 C 70.000 59.780,70.504 59.600,71.120 59.600 C 71.736 59.600,72.412 59.428,72.623 59.217 C 72.833 59.007,74.534 58.713,76.403 58.565 C 78.271 58.416,80.070 58.136,80.400 57.943 C 81.101 57.533,85.035 57.709,90.400 58.391 " stroke="none" fill="#04acec" fill-rule="evenodd"></path><path id="path1" d="M197.200 0.595 C 197.200 0.928,197.032 1.200,196.827 1.200 C 196.622 1.200,196.345 1.544,196.212 1.963 C 196.078 2.383,195.439 3.328,194.791 4.063 C 194.143 4.799,193.610 5.675,193.606 6.012 C 193.603 6.348,193.240 6.883,192.800 7.200 C 192.360 7.517,192.000 8.025,192.000 8.328 C 192.000 8.631,191.460 9.383,190.800 10.000 C 190.140 10.617,189.600 11.319,189.600 11.560 C 189.600 11.802,189.450 12.000,189.268 12.000 C 189.085 12.000,188.681 12.495,188.370 13.100 C 188.060 13.705,187.489 14.491,187.103 14.847 C 186.716 15.203,186.400 15.653,186.399 15.847 C 186.399 16.041,185.859 16.830,185.200 17.600 C 184.541 18.370,184.001 19.185,184.001 19.412 C 184.000 19.638,183.640 20.083,183.200 20.400 C 182.760 20.717,182.400 21.162,182.399 21.388 C 182.399 21.615,181.859 22.430,181.200 23.200 C 180.541 23.970,180.001 24.810,180.001 25.067 C 180.000 25.323,179.862 25.593,179.693 25.667 C 179.251 25.859,176.400 29.840,176.400 30.265 C 176.400 30.462,176.040 30.883,175.600 31.200 C 175.160 31.517,174.800 32.097,174.800 32.488 C 174.800 32.880,174.620 33.200,174.400 33.200 C 174.180 33.200,174.000 33.560,174.000 34.000 C 174.000 34.440,174.180 34.800,174.400 34.800 C 174.620 34.800,174.800 35.120,174.800 35.512 C 174.800 35.903,175.160 36.483,175.600 36.800 C 176.040 37.117,176.400 37.682,176.400 38.055 C 176.400 38.428,176.535 38.793,176.700 38.867 C 176.865 38.940,177.339 39.667,177.753 40.481 C 178.167 41.296,178.842 42.324,179.253 42.765 C 179.664 43.206,180.000 43.844,180.000 44.183 C 180.000 44.522,180.158 44.800,180.351 44.800 C 180.545 44.800,180.927 45.340,181.200 46.000 C 181.473 46.660,181.855 47.200,182.049 47.200 C 182.242 47.200,182.400 47.520,182.400 47.912 C 182.400 48.303,182.760 48.883,183.200 49.200 C 183.640 49.517,184.000 50.097,184.000 50.488 C 184.000 50.880,184.180 51.200,184.400 51.200 C 184.620 51.200,184.800 51.436,184.800 51.725 C 184.800 52.013,185.160 52.636,185.600 53.108 C 186.040 53.580,186.400 54.077,186.400 54.211 C 186.400 54.346,186.940 55.241,187.600 56.200 C 188.260 57.159,188.800 58.097,188.800 58.284 C 188.800 58.471,189.160 58.883,189.600 59.200 C 190.040 59.517,190.400 60.014,190.400 60.305 C 190.400 60.596,190.760 61.220,191.200 61.692 C 191.640 62.164,192.000 62.787,192.000 63.075 C 192.000 63.364,192.180 63.600,192.400 63.600 C 192.620 63.600,192.800 63.960,192.800 64.400 C 192.800 64.840,192.968 65.200,193.173 65.200 C 193.378 65.200,193.674 65.605,193.829 66.100 C 193.985 66.595,194.807 68.025,195.656 69.278 C 196.505 70.531,197.200 71.746,197.200 71.978 C 197.200 72.210,197.336 72.400,197.502 72.400 C 197.669 72.400,198.029 72.906,198.303 73.525 C 198.576 74.144,199.160 75.036,199.600 75.508 C 200.040 75.980,200.400 76.604,200.400 76.895 C 200.400 77.186,200.760 77.683,201.200 78.000 C 201.640 78.317,202.000 78.897,202.000 79.288 C 202.000 79.680,202.180 80.000,202.400 80.000 C 202.620 80.000,202.800 80.236,202.800 80.525 C 202.800 80.813,203.160 81.436,203.600 81.908 C 204.040 82.380,204.400 83.004,204.400 83.295 C 204.400 83.586,204.760 84.083,205.200 84.400 C 205.640 84.717,206.000 85.297,206.000 85.688 C 206.000 86.080,206.180 86.400,206.400 86.400 C 206.620 86.400,206.800 86.670,206.800 87.000 C 206.800 87.330,206.980 87.600,207.200 87.600 C 207.420 87.600,207.600 87.870,207.600 88.200 C 207.600 88.530,207.780 88.800,208.000 88.800 C 208.220 88.800,208.400 89.070,208.400 89.400 C 208.400 89.730,208.580 90.000,208.800 90.000 C 209.020 90.000,209.200 90.270,209.200 90.600 C 209.200 90.930,209.335 91.201,209.500 91.201 C 209.665 91.202,210.133 92.012,210.540 93.001 C 210.946 93.991,211.420 94.800,211.591 94.800 C 211.763 94.800,212.127 95.340,212.400 96.000 C 212.673 96.660,213.055 97.200,213.249 97.200 C 213.442 97.200,213.600 97.560,213.600 98.000 C 213.600 98.440,213.758 98.800,213.951 98.800 C 214.145 98.800,214.527 99.340,214.800 100.000 C 215.073 100.660,215.455 101.200,215.649 101.200 C 215.842 101.200,216.000 101.436,216.000 101.725 C 216.000 102.013,216.360 102.636,216.800 103.108 C 217.240 103.580,217.600 104.244,217.600 104.583 C 217.600 104.922,217.780 105.200,218.000 105.200 C 218.220 105.200,218.400 105.470,218.400 105.800 C 218.400 106.130,218.580 106.400,218.800 106.400 C 219.020 106.400,219.200 106.670,219.200 107.000 C 219.200 107.330,219.380 107.600,219.600 107.600 C 219.820 107.600,220.000 107.788,220.000 108.017 C 220.000 108.246,220.360 108.820,220.800 109.292 C 221.240 109.764,221.600 110.387,221.600 110.675 C 221.600 110.964,221.780 111.200,222.000 111.200 C 222.220 111.200,222.400 111.520,222.400 111.912 C 222.400 112.303,222.760 112.883,223.200 113.200 C 223.640 113.517,224.000 114.014,224.000 114.305 C 224.000 114.596,224.360 115.220,224.800 115.692 C 225.240 116.164,225.600 116.787,225.600 117.075 C 225.600 117.364,225.780 117.600,226.000 117.600 C 226.220 117.600,226.400 117.775,226.400 117.988 C 226.400 118.202,227.218 119.761,228.219 121.453 C 229.219 123.145,229.887 124.635,229.704 124.765 C 229.520 124.894,228.837 126.080,228.185 127.400 C 227.533 128.720,226.865 129.860,226.700 129.933 C 226.535 130.007,226.400 130.412,226.400 130.833 C 226.400 131.255,226.220 131.600,226.000 131.600 C 225.780 131.600,225.600 131.960,225.600 132.400 C 225.600 132.840,225.420 133.200,225.200 133.200 C 224.980 133.200,224.800 133.560,224.800 134.000 C 224.800 134.440,224.620 134.800,224.400 134.800 C 224.180 134.800,224.000 135.145,224.000 135.567 C 224.000 135.988,223.865 136.393,223.700 136.467 C 223.324 136.634,222.025 138.764,221.729 139.700 C 221.607 140.085,221.348 140.400,221.153 140.400 C 220.959 140.400,220.800 140.760,220.800 141.200 C 220.800 141.640,220.620 142.000,220.400 142.000 C 220.180 142.000,220.000 142.360,220.000 142.800 C 220.000 143.240,219.854 143.600,219.675 143.600 C 219.496 143.600,219.102 144.230,218.800 145.000 C 218.498 145.770,218.104 146.400,217.925 146.400 C 217.746 146.400,217.600 146.760,217.600 147.200 C 217.600 147.640,217.465 148.001,217.300 148.003 C 217.135 148.005,216.802 148.410,216.560 148.903 C 215.378 151.311,214.170 153.413,213.900 153.533 C 213.735 153.607,213.600 154.012,213.600 154.433 C 213.600 154.855,213.420 155.200,213.200 155.200 C 212.980 155.200,212.800 155.560,212.800 156.000 C 212.800 156.440,212.620 156.800,212.400 156.800 C 212.180 156.800,212.000 157.145,212.000 157.567 C 212.000 157.988,211.865 158.393,211.700 158.467 C 211.227 158.677,210.000 161.056,210.000 161.762 C 210.000 162.113,209.820 162.400,209.600 162.400 C 209.380 162.400,209.200 162.670,209.200 163.000 C 209.200 163.330,209.020 163.600,208.800 163.600 C 208.580 163.600,208.400 163.960,208.400 164.400 C 208.400 164.840,208.220 165.200,208.000 165.200 C 207.780 165.200,207.600 165.560,207.600 166.000 C 207.600 166.440,207.420 166.800,207.200 166.800 C 206.980 166.800,206.800 167.160,206.800 167.600 C 206.800 168.040,206.620 168.400,206.400 168.400 C 206.180 168.400,206.000 168.745,206.000 169.167 C 206.000 169.588,205.865 169.993,205.700 170.067 C 205.324 170.234,204.025 172.364,203.729 173.300 C 203.607 173.685,203.348 174.000,203.153 174.000 C 202.959 174.000,202.800 174.360,202.800 174.800 C 202.800 175.240,202.620 175.600,202.400 175.600 C 202.180 175.600,202.000 175.960,202.000 176.400 C 202.000 176.840,201.854 177.200,201.675 177.200 C 201.496 177.200,201.102 177.830,200.800 178.600 C 200.498 179.370,200.104 180.000,199.925 180.000 C 199.746 180.000,199.600 180.360,199.600 180.800 C 199.600 181.240,199.465 181.601,199.300 181.603 C 199.135 181.605,198.806 182.010,198.569 182.503 C 197.149 185.463,194.555 190.220,194.300 190.333 C 194.135 190.407,194.000 190.739,194.000 191.072 C 194.000 191.752,192.761 194.128,192.300 194.333 C 192.135 194.407,192.000 194.812,192.000 195.233 C 192.000 195.655,191.820 196.000,191.600 196.000 C 191.380 196.000,191.200 196.270,191.200 196.600 C 191.200 196.930,191.020 197.200,190.800 197.200 C 190.580 197.200,190.400 197.560,190.400 198.000 C 190.400 198.440,190.220 198.800,190.000 198.800 C 189.780 198.800,189.600 199.160,189.600 199.600 C 189.600 200.040,189.420 200.400,189.200 200.400 C 188.980 200.400,188.800 200.745,188.800 201.167 C 188.800 201.588,188.665 201.993,188.500 202.067 C 188.124 202.234,186.825 204.364,186.529 205.300 C 186.407 205.685,186.148 206.000,185.953 206.000 C 185.759 206.000,185.600 206.360,185.600 206.800 C 185.600 207.240,185.420 207.600,185.200 207.600 C 184.980 207.600,184.800 207.960,184.800 208.400 C 184.800 208.840,184.620 209.200,184.400 209.200 C 184.180 209.200,184.000 209.545,184.000 209.967 C 184.000 210.388,183.784 210.805,183.520 210.893 C 183.194 211.002,183.322 211.448,183.920 212.288 C 184.404 212.968,184.800 213.632,184.800 213.765 C 184.800 213.898,185.340 214.572,186.000 215.263 C 186.660 215.954,187.200 216.722,187.200 216.971 C 187.200 217.220,187.560 217.683,188.000 218.000 C 188.440 218.317,188.800 218.807,188.800 219.088 C 188.800 219.370,188.980 219.600,189.200 219.600 C 189.420 219.600,189.600 219.830,189.600 220.112 C 189.600 220.393,189.960 220.883,190.400 221.200 C 190.840 221.517,191.200 222.007,191.200 222.288 C 191.200 222.570,191.380 222.800,191.600 222.800 C 191.820 222.800,192.000 223.030,192.000 223.312 C 192.000 223.593,192.360 224.083,192.800 224.400 C 193.240 224.717,193.600 225.182,193.600 225.434 C 193.600 225.686,194.137 226.501,194.794 227.246 C 195.450 227.991,195.990 228.707,195.994 228.838 C 195.997 228.969,196.450 229.599,197.000 230.238 C 197.549 230.877,197.999 231.537,198.000 231.704 C 198.000 231.871,198.540 232.572,199.200 233.263 C 199.860 233.954,200.400 234.722,200.400 234.971 C 200.400 235.220,200.760 235.683,201.200 236.000 C 201.640 236.317,202.000 236.807,202.000 237.088 C 202.000 237.370,202.180 237.600,202.400 237.600 C 202.620 237.600,202.800 237.830,202.800 238.112 C 202.800 238.393,203.160 238.883,203.600 239.200 C 204.040 239.517,204.400 239.935,204.400 240.128 C 204.400 240.321,204.940 240.983,205.600 241.600 C 206.260 242.217,206.800 242.969,206.800 243.272 C 206.800 243.575,207.160 244.083,207.600 244.400 C 208.040 244.717,208.400 245.173,208.400 245.413 C 208.400 245.653,208.721 246.198,209.113 246.625 C 209.505 247.051,210.217 248.038,210.695 248.818 C 211.173 249.598,211.948 250.678,212.417 251.218 C 212.886 251.758,213.563 252.695,213.921 253.300 C 214.280 253.905,214.714 254.400,214.886 254.400 C 215.059 254.400,215.200 254.578,215.200 254.795 C 215.200 255.167,215.960 256.215,217.100 257.416 C 217.375 257.706,217.600 258.047,217.600 258.175 C 217.600 258.303,218.140 258.972,218.800 259.663 C 219.460 260.354,220.000 261.074,220.000 261.263 C 220.000 261.452,220.540 262.172,221.200 262.863 C 221.860 263.554,222.400 264.322,222.400 264.571 C 222.400 264.820,222.760 265.283,223.200 265.600 C 223.640 265.917,224.000 266.380,224.000 266.629 C 224.000 266.878,224.507 267.612,225.126 268.260 C 225.746 268.908,226.356 269.700,226.483 270.019 C 226.610 270.339,227.634 271.823,228.757 273.318 C 229.881 274.813,230.800 276.120,230.800 276.222 C 230.800 276.324,231.340 276.972,232.000 277.663 C 232.660 278.354,233.200 279.122,233.200 279.371 C 233.200 279.620,233.560 280.083,234.000 280.400 C 234.440 280.717,234.800 281.180,234.800 281.429 C 234.800 281.678,235.340 282.446,236.000 283.137 C 236.660 283.828,237.200 284.548,237.200 284.737 C 237.200 284.926,237.740 285.646,238.400 286.337 C 239.060 287.028,239.600 287.748,239.600 287.937 C 239.600 288.126,240.140 288.846,240.800 289.537 C 241.460 290.228,242.000 290.897,242.000 291.025 C 242.000 292.485,243.026 292.596,258.371 292.800 L 273.400 293.000 273.522 295.132 C 273.589 296.305,273.477 297.475,273.273 297.732 C 273.068 297.990,271.054 301.530,268.797 305.600 C 263.283 315.544,263.051 315.959,261.995 317.800 C 261.490 318.680,260.700 320.120,260.238 321.000 C 259.777 321.880,259.310 322.690,259.200 322.800 C 259.090 322.910,258.623 323.720,258.162 324.600 C 257.700 325.480,256.908 326.920,256.400 327.800 C 255.892 328.680,254.995 330.300,254.408 331.400 C 253.820 332.500,252.526 334.840,251.532 336.600 C 250.538 338.360,249.183 340.790,248.521 342.000 C 247.859 343.210,246.904 344.920,246.397 345.800 C 245.891 346.680,245.100 348.120,244.638 349.000 C 244.177 349.880,243.710 350.690,243.600 350.800 C 243.490 350.910,243.023 351.720,242.562 352.600 C 242.100 353.480,241.335 354.880,240.862 355.712 C 240.388 356.544,240.000 357.307,240.000 357.408 C 240.000 357.509,247.695 357.638,257.100 357.696 L 274.200 357.800 274.301 361.000 C 274.474 366.506,273.714 366.000,281.808 366.000 C 289.531 366.000,289.465 366.026,288.074 363.512 C 284.633 357.295,284.680 357.822,284.513 323.500 L 284.363 292.800 296.982 292.800 L 309.600 292.800 309.600 320.776 C 309.600 338.996,309.740 348.839,310.000 349.000 C 310.220 349.136,310.400 349.609,310.400 350.052 C 310.400 351.962,315.094 356.800,316.948 356.800 C 317.281 356.800,317.664 356.980,317.800 357.200 C 318.159 357.781,323.938 357.679,325.713 357.061 C 328.048 356.248,330.214 354.414,331.672 352.016 L 333.000 349.832 333.200 321.416 L 333.400 293.000 345.891 292.894 L 358.382 292.789 358.491 317.361 C 358.599 341.724,358.655 342.899,359.674 342.033 C 361.448 340.524,362.158 340.000,362.429 340.000 C 363.160 340.000,375.200 327.550,375.200 326.795 C 375.200 326.560,375.920 325.683,376.800 324.846 C 377.680 324.009,378.400 323.156,378.400 322.950 C 378.400 322.745,378.760 322.317,379.200 322.000 C 379.640 321.683,380.000 321.193,380.000 320.912 C 380.000 320.630,380.180 320.400,380.400 320.400 C 380.620 320.400,380.800 320.170,380.800 319.888 C 380.800 319.607,381.160 319.117,381.600 318.800 C 382.040 318.483,382.400 317.986,382.400 317.695 C 382.400 317.404,382.760 316.780,383.200 316.308 C 383.640 315.836,384.000 315.213,384.000 314.925 C 384.000 314.636,384.180 314.400,384.400 314.400 C 384.620 314.400,384.800 314.164,384.800 313.875 C 384.800 313.587,385.160 312.964,385.600 312.492 C 386.040 312.020,386.400 311.356,386.400 311.017 C 386.400 310.678,386.580 310.400,386.800 310.400 C 387.020 310.400,387.200 310.040,387.200 309.600 C 387.200 309.160,387.359 308.800,387.553 308.800 C 387.748 308.800,388.007 308.485,388.129 308.100 C 388.251 307.715,388.629 306.950,388.969 306.400 C 389.925 304.853,391.600 300.923,391.600 300.226 C 391.600 299.882,391.780 299.600,392.000 299.600 C 392.220 299.600,392.400 299.251,392.400 298.824 C 392.400 298.397,392.580 297.936,392.800 297.800 C 393.020 297.664,393.200 297.113,393.200 296.576 C 393.200 296.039,393.380 295.600,393.600 295.600 C 393.820 295.600,394.000 295.060,394.000 294.400 C 394.000 293.740,394.180 293.200,394.400 293.200 C 394.620 293.200,394.800 292.750,394.800 292.200 C 394.800 291.650,394.980 291.200,395.200 291.200 C 395.420 291.200,395.600 290.660,395.600 290.000 C 395.600 289.340,395.780 288.800,396.000 288.800 C 396.220 288.800,396.400 288.271,396.400 287.624 C 396.400 286.977,396.580 286.336,396.800 286.200 C 397.020 286.064,397.200 285.333,397.200 284.576 C 397.200 283.819,397.380 283.200,397.600 283.200 C 397.820 283.200,398.000 282.401,398.000 281.424 C 398.000 280.447,398.180 279.536,398.400 279.400 C 398.620 279.264,398.800 278.479,398.800 277.656 C 398.800 276.833,399.025 275.935,399.300 275.660 C 400.035 274.925,400.035 83.875,399.300 83.140 C 399.025 82.865,398.800 81.877,398.800 80.944 C 398.800 80.011,398.620 79.136,398.400 79.000 C 398.180 78.864,398.000 78.043,398.000 77.176 C 398.000 76.309,397.820 75.600,397.600 75.600 C 397.380 75.600,397.200 74.880,397.200 74.000 C 397.200 73.120,397.020 72.400,396.800 72.400 C 396.580 72.400,396.400 71.860,396.400 71.200 C 396.400 70.540,396.220 70.000,396.000 70.000 C 395.780 70.000,395.600 69.460,395.600 68.800 C 395.600 68.140,395.420 67.600,395.200 67.600 C 394.980 67.600,394.800 67.060,394.800 66.400 C 394.800 65.740,394.620 65.200,394.400 65.200 C 394.180 65.200,394.000 64.838,394.000 64.395 C 394.000 63.952,393.820 63.232,393.600 62.795 C 393.380 62.358,393.020 61.642,392.800 61.205 C 392.580 60.768,392.400 60.138,392.400 59.805 C 392.400 59.472,392.236 59.200,392.035 59.200 C 391.834 59.200,391.549 58.480,391.400 57.600 C 391.251 56.720,390.966 56.000,390.765 56.000 C 390.564 56.000,390.400 55.640,390.400 55.200 C 390.400 54.760,390.220 54.400,390.000 54.400 C 389.780 54.400,389.600 54.166,389.600 53.880 C 389.600 53.144,388.659 51.207,388.300 51.203 C 388.135 51.201,388.000 50.840,388.000 50.400 C 388.000 49.960,387.820 49.600,387.600 49.600 C 387.380 49.600,387.200 49.240,387.200 48.800 C 387.200 48.360,387.020 48.000,386.800 48.000 C 386.580 48.000,386.400 47.764,386.400 47.475 C 386.400 47.187,386.085 46.602,385.700 46.175 C 385.315 45.749,384.731 44.860,384.403 44.200 C 384.074 43.540,383.489 42.709,383.103 42.353 C 382.716 41.997,382.400 41.452,382.400 41.141 C 382.400 40.831,382.040 40.317,381.600 40.000 C 381.160 39.683,380.800 39.220,380.800 38.971 C 380.800 38.722,380.260 37.954,379.600 37.263 C 378.940 36.572,378.400 35.847,378.400 35.652 C 378.400 35.456,377.680 34.555,376.800 33.648 C 375.920 32.741,375.200 31.820,375.200 31.602 C 375.200 31.101,363.362 19.200,362.864 19.200 C 362.662 19.200,361.794 18.525,360.935 17.700 C 358.082 14.959,351.171 10.000,350.204 10.000 C 349.872 10.000,349.600 9.820,349.600 9.600 C 349.600 9.380,349.364 9.200,349.075 9.200 C 348.787 9.200,348.164 8.840,347.692 8.400 C 347.220 7.960,346.556 7.600,346.217 7.600 C 345.878 7.600,345.600 7.420,345.600 7.200 C 345.600 6.980,345.240 6.800,344.800 6.800 C 344.360 6.800,344.000 6.620,344.000 6.400 C 344.000 6.180,343.722 6.000,343.383 6.000 C 343.044 6.000,342.380 5.640,341.908 5.200 C 341.436 4.760,340.723 4.400,340.325 4.400 C 339.926 4.400,339.600 4.220,339.600 4.000 C 339.600 3.780,339.240 3.600,338.800 3.600 C 338.360 3.600,338.000 3.420,338.000 3.200 C 338.000 2.980,337.640 2.800,337.200 2.800 C 336.760 2.800,336.400 2.620,336.400 2.400 C 336.400 2.180,336.040 2.000,335.600 2.000 C 335.160 2.000,334.800 1.820,334.800 1.600 C 334.800 1.380,334.386 1.200,333.880 1.200 C 333.374 1.200,332.735 0.975,332.460 0.700 C 331.632 -0.128,197.200 -0.232,197.200 0.595 M321.600 144.400 C 321.600 144.620,322.309 144.800,323.176 144.800 C 324.043 144.800,324.864 144.980,325.000 145.200 C 325.136 145.420,325.689 145.600,326.229 145.600 C 326.769 145.600,327.568 145.780,328.005 146.000 C 328.442 146.220,329.158 146.580,329.595 146.800 C 330.032 147.020,330.662 147.200,330.995 147.200 C 331.328 147.200,331.600 147.380,331.600 147.600 C 331.600 147.820,331.960 148.000,332.400 148.000 C 332.840 148.000,333.200 148.180,333.200 148.400 C 333.200 148.620,333.560 148.800,334.000 148.800 C 334.440 148.800,334.800 148.958,334.800 149.151 C 334.800 149.345,335.340 149.727,336.000 150.000 C 336.660 150.273,337.200 150.643,337.200 150.822 C 337.200 151.000,337.551 151.257,337.980 151.394 C 338.408 151.530,339.285 152.127,339.927 152.720 C 340.570 153.314,341.704 154.360,342.448 155.044 C 344.653 157.072,347.222 160.010,347.691 161.039 C 347.931 161.568,348.280 162.000,348.464 162.000 C 348.649 162.000,348.800 162.236,348.800 162.525 C 348.800 162.813,349.160 163.436,349.600 163.908 C 350.040 164.380,350.400 165.044,350.400 165.383 C 350.400 165.722,350.580 166.000,350.800 166.000 C 351.020 166.000,351.200 166.360,351.200 166.800 C 351.200 167.240,351.380 167.600,351.600 167.600 C 351.820 167.600,352.000 168.050,352.000 168.600 C 352.000 169.150,352.180 169.600,352.400 169.600 C 352.620 169.600,352.800 170.050,352.800 170.600 C 352.800 171.150,352.980 171.600,353.200 171.600 C 353.420 171.600,353.600 172.230,353.600 173.000 C 353.600 173.770,353.780 174.400,354.000 174.400 C 354.220 174.400,354.400 175.300,354.400 176.400 C 354.400 177.500,354.580 178.400,354.800 178.400 C 355.048 178.400,355.200 180.533,355.200 184.000 C 355.200 187.467,355.048 189.600,354.800 189.600 C 354.580 189.600,354.400 190.500,354.400 191.600 C 354.400 192.700,354.220 193.600,354.000 193.600 C 353.780 193.600,353.600 194.230,353.600 195.000 C 353.600 195.770,353.420 196.400,353.200 196.400 C 352.980 196.400,352.800 196.749,352.800 197.176 C 352.800 197.603,352.620 198.064,352.400 198.200 C 352.180 198.336,352.000 198.887,352.000 199.424 C 352.000 199.961,351.820 200.400,351.600 200.400 C 351.380 200.400,351.200 200.760,351.200 201.200 C 351.200 201.640,351.020 202.000,350.800 202.000 C 350.580 202.000,350.400 202.278,350.400 202.617 C 350.400 202.956,350.040 203.620,349.600 204.092 C 349.160 204.564,348.800 205.187,348.800 205.475 C 348.800 205.764,348.650 206.000,348.468 206.000 C 348.285 206.000,347.880 206.488,347.568 207.085 C 346.964 208.240,344.434 211.170,342.839 212.561 C 342.310 213.023,341.281 213.985,340.552 214.700 C 339.823 215.415,339.075 216.000,338.889 216.000 C 338.703 216.000,338.202 216.315,337.775 216.700 C 337.349 217.085,336.505 217.655,335.900 217.968 C 335.295 218.280,334.800 218.685,334.800 218.868 C 334.800 219.050,334.440 219.200,334.000 219.200 C 333.560 219.200,333.200 219.380,333.200 219.600 C 333.200 219.820,332.840 220.000,332.400 220.000 C 331.960 220.000,331.600 220.180,331.600 220.400 C 331.600 220.620,331.150 220.800,330.600 220.800 C 330.050 220.800,329.600 220.980,329.600 221.200 C 329.600 221.420,329.150 221.600,328.600 221.600 C 328.050 221.600,327.600 221.780,327.600 222.000 C 327.600 222.220,326.970 222.400,326.200 222.400 C 325.430 222.400,324.800 222.580,324.800 222.800 C 324.800 223.020,324.001 223.200,323.024 223.200 C 322.047 223.200,321.136 223.380,321.000 223.600 C 320.854 223.836,318.470 224.000,315.200 224.000 C 311.930 224.000,309.546 223.836,309.400 223.600 C 309.264 223.380,308.353 223.200,307.376 223.200 C 306.399 223.200,305.600 223.020,305.600 222.800 C 305.600 222.580,304.970 222.400,304.200 222.400 C 303.430 222.400,302.800 222.220,302.800 222.000 C 302.800 221.780,302.350 221.600,301.800 221.600 C 301.250 221.600,300.800 221.420,300.800 221.200 C 300.800 220.980,300.350 220.800,299.800 220.800 C 299.250 220.800,298.800 220.620,298.800 220.400 C 298.800 220.180,298.440 220.000,298.000 220.000 C 297.560 220.000,297.200 219.820,297.200 219.600 C 297.200 219.380,296.922 219.200,296.583 219.200 C 296.244 219.200,295.580 218.840,295.108 218.400 C 294.636 217.960,294.013 217.600,293.725 217.600 C 293.436 217.600,293.200 217.432,293.200 217.227 C 293.200 217.022,292.867 216.748,292.459 216.619 C 291.570 216.336,283.200 208.320,283.200 207.750 C 283.200 207.530,282.885 207.002,282.500 206.575 C 282.115 206.149,281.545 205.305,281.232 204.700 C 280.920 204.095,280.515 203.600,280.332 203.600 C 280.150 203.600,280.000 203.240,280.000 202.800 C 280.000 202.360,279.820 202.000,279.600 202.000 C 279.380 202.000,279.200 201.640,279.200 201.200 C 279.200 200.760,279.020 200.400,278.800 200.400 C 278.580 200.400,278.400 200.051,278.400 199.624 C 278.400 199.197,278.220 198.736,278.000 198.600 C 277.780 198.464,277.600 197.913,277.600 197.376 C 277.600 196.839,277.420 196.400,277.200 196.400 C 276.980 196.400,276.800 195.770,276.800 195.000 C 276.800 194.230,276.620 193.600,276.400 193.600 C 276.180 193.600,276.000 192.891,276.000 192.024 C 276.000 191.157,275.820 190.336,275.600 190.200 C 275.362 190.053,275.200 187.537,275.200 184.000 C 275.200 180.463,275.362 177.947,275.600 177.800 C 275.820 177.664,276.000 176.854,276.000 176.000 C 276.000 175.146,276.180 174.336,276.400 174.200 C 276.620 174.064,276.800 173.423,276.800 172.776 C 276.800 172.129,276.980 171.600,277.200 171.600 C 277.420 171.600,277.600 171.161,277.600 170.624 C 277.600 170.087,277.780 169.536,278.000 169.400 C 278.220 169.264,278.400 168.803,278.400 168.376 C 278.400 167.949,278.580 167.600,278.800 167.600 C 279.020 167.600,279.200 167.240,279.200 166.800 C 279.200 166.360,279.380 166.000,279.600 166.000 C 279.820 166.000,280.000 165.640,280.000 165.200 C 280.000 164.760,280.180 164.400,280.400 164.400 C 280.620 164.400,280.800 164.164,280.800 163.875 C 280.800 163.587,281.160 162.964,281.600 162.492 C 282.040 162.020,282.400 161.430,282.400 161.182 C 282.400 160.640,291.906 151.200,292.452 151.200 C 292.662 151.200,293.220 150.840,293.692 150.400 C 294.164 149.960,294.787 149.600,295.075 149.600 C 295.364 149.600,295.600 149.420,295.600 149.200 C 295.600 148.980,295.960 148.800,296.400 148.800 C 296.840 148.800,297.200 148.620,297.200 148.400 C 297.200 148.180,297.560 148.000,298.000 148.000 C 298.440 148.000,298.800 147.820,298.800 147.600 C 298.800 147.380,299.160 147.200,299.600 147.200 C 300.040 147.200,300.400 147.020,300.400 146.800 C 300.400 146.580,300.940 146.400,301.600 146.400 C 302.260 146.400,302.800 146.220,302.800 146.000 C 302.800 145.780,303.329 145.600,303.976 145.600 C 304.623 145.600,305.264 145.420,305.400 145.200 C 305.536 144.980,306.357 144.800,307.224 144.800 C 308.091 144.800,308.800 144.620,308.800 144.400 C 308.800 144.150,311.200 144.000,315.200 144.000 C 319.200 144.000,321.600 144.150,321.600 144.400 " stroke="none" fill="#ec1c24" fill-rule="evenodd"></path><path id="path2" d="M205.894 293.099 L 200.387 293.223 200.494 304.311 L 200.600 315.400 217.988 315.722 C 234.772 316.032,236.234 316.116,235.388 316.722 C 234.903 317.069,233.625 319.166,233.329 320.100 C 233.207 320.485,232.948 320.800,232.753 320.800 C 232.559 320.800,232.400 321.160,232.400 321.600 C 232.400 322.040,232.220 322.400,232.000 322.400 C 231.780 322.400,231.600 322.760,231.600 323.200 C 231.600 323.640,231.420 324.000,231.200 324.000 C 230.980 324.000,230.800 324.183,230.800 324.407 C 230.800 324.631,230.078 326.003,229.196 327.456 C 228.313 328.908,227.484 330.525,227.352 331.048 C 227.221 331.572,226.953 332.000,226.757 332.000 C 226.560 332.000,226.400 332.270,226.400 332.600 C 226.400 332.930,226.220 333.200,226.000 333.200 C 225.780 333.200,225.600 333.560,225.600 334.000 C 225.600 334.440,225.420 334.800,225.200 334.800 C 224.980 334.800,224.800 335.160,224.800 335.600 C 224.800 336.040,224.620 336.400,224.400 336.400 C 224.180 336.400,224.000 336.760,224.000 337.200 C 224.000 337.640,223.820 338.000,223.600 338.000 C 223.380 338.000,223.200 338.236,223.200 338.525 C 223.200 338.813,222.840 339.436,222.400 339.908 C 221.960 340.380,221.600 341.044,221.600 341.383 C 221.600 341.722,221.420 342.000,221.200 342.000 C 220.980 342.000,220.800 342.360,220.800 342.800 C 220.800 343.240,220.620 343.600,220.400 343.600 C 220.180 343.600,220.000 343.855,220.000 344.167 C 220.000 344.478,219.865 344.793,219.700 344.867 C 219.324 345.034,218.025 347.164,217.729 348.100 C 217.607 348.485,217.348 348.800,217.153 348.800 C 216.959 348.800,216.800 349.160,216.800 349.600 C 216.800 350.040,216.620 350.400,216.400 350.400 C 216.180 350.400,216.000 350.760,216.000 351.200 C 216.000 351.640,215.841 352.000,215.647 352.000 C 215.452 352.000,215.193 352.315,215.071 352.700 C 214.775 353.636,213.476 355.766,213.100 355.933 C 212.935 356.007,212.800 356.412,212.800 356.833 C 212.800 357.255,212.620 357.600,212.400 357.600 C 212.180 357.600,212.000 357.960,212.000 358.400 C 212.000 358.840,211.838 359.200,211.640 359.200 C 211.441 359.200,210.946 360.009,210.540 360.999 C 210.133 361.988,209.665 362.798,209.500 362.799 C 209.335 362.799,209.200 363.160,209.200 363.600 C 209.200 364.040,209.020 364.400,208.800 364.400 C 208.580 364.400,208.400 364.678,208.400 365.017 C 208.400 365.356,208.040 366.020,207.600 366.492 C 207.160 366.964,206.800 367.587,206.800 367.875 C 206.800 368.164,206.620 368.400,206.400 368.400 C 206.180 368.400,206.000 368.760,206.000 369.200 C 206.000 369.640,205.820 370.000,205.600 370.000 C 205.380 370.000,205.200 370.360,205.200 370.800 C 205.200 371.240,205.020 371.600,204.800 371.600 C 204.580 371.600,204.400 371.878,204.400 372.217 C 204.400 372.556,204.040 373.220,203.600 373.692 C 203.160 374.164,202.800 374.787,202.800 375.075 C 202.800 375.364,202.620 375.600,202.400 375.600 C 202.174 375.600,202.000 376.733,202.000 378.200 L 202.000 380.800 238.400 380.800 L 274.800 380.800 274.800 373.476 C 274.800 367.656,274.679 365.994,274.213 365.376 C 273.810 364.843,273.621 363.566,273.613 361.300 L 273.600 358.000 256.667 358.000 C 247.353 358.000,239.621 357.887,239.483 357.749 C 239.260 357.526,240.340 355.322,242.399 351.800 C 242.785 351.140,243.573 349.745,244.151 348.700 C 244.728 347.655,245.650 345.990,246.200 345.000 C 246.750 344.010,247.650 342.390,248.200 341.400 C 248.750 340.410,249.679 338.745,250.264 337.700 C 254.838 329.529,260.496 319.388,261.590 317.400 C 262.316 316.080,263.356 314.190,263.900 313.200 C 264.445 312.210,266.670 308.225,268.845 304.345 C 272.368 298.060,272.800 297.073,272.800 295.310 L 272.800 293.331 251.134 293.065 C 230.553 292.813,218.218 292.822,205.894 293.099 M22.531 294.300 C 23.080 295.529,24.829 298.913,25.941 300.898 C 26.342 301.614,27.533 303.820,28.588 305.800 C 29.643 307.780,31.180 310.660,32.003 312.200 C 35.167 318.119,36.764 321.119,38.507 324.421 C 40.777 328.722,43.321 333.494,44.999 336.600 C 45.712 337.920,47.155 340.620,48.204 342.600 C 49.254 344.580,50.628 347.156,51.256 348.325 C 52.549 350.727,52.801 353.569,51.795 354.405 C 51.273 354.838,51.204 356.683,51.295 367.754 L 51.400 380.600 64.800 380.600 L 78.200 380.600 78.309 373.481 C 78.401 367.535,78.318 366.261,77.809 365.752 C 77.121 365.064,76.883 350.506,77.548 349.780 C 77.916 349.377,79.640 346.203,83.402 339.000 C 84.666 336.580,86.012 334.060,86.395 333.400 C 86.777 332.740,88.084 330.310,89.300 328.000 C 93.031 320.911,94.849 317.486,95.989 315.400 C 96.590 314.300,98.033 311.600,99.197 309.400 C 100.361 307.200,102.727 302.770,104.456 299.554 C 106.185 296.339,107.600 293.592,107.600 293.449 C 107.600 293.306,101.441 293.237,93.914 293.295 L 80.227 293.400 75.935 301.800 C 73.574 306.420,70.238 313.031,68.521 316.491 C 66.805 319.952,65.197 322.787,64.949 322.791 C 64.702 322.796,63.015 319.875,61.200 316.300 C 54.989 304.060,49.880 294.200,49.491 293.700 C 49.194 293.318,45.921 293.200,35.570 293.200 L 22.039 293.200 22.531 294.300 M114.800 322.617 C 114.800 357.981,114.832 358.244,120.057 366.248 C 121.126 367.885,122.000 369.583,122.000 370.021 C 122.000 370.881,126.194 375.200,127.029 375.200 C 127.306 375.200,127.593 375.345,127.667 375.523 C 127.859 375.991,131.465 378.400,131.972 378.400 C 132.207 378.400,132.400 378.580,132.400 378.800 C 132.400 379.020,132.760 379.200,133.200 379.200 C 133.640 379.200,134.000 379.380,134.000 379.600 C 134.000 379.820,134.360 380.000,134.800 380.000 C 135.240 380.000,135.600 380.180,135.600 380.400 C 135.600 380.620,135.962 380.800,136.405 380.800 C 136.848 380.800,137.568 380.980,138.005 381.200 C 138.442 381.420,139.158 381.780,139.595 382.000 C 140.032 382.220,140.932 382.400,141.595 382.400 C 142.258 382.400,142.800 382.580,142.800 382.800 C 142.800 383.020,143.610 383.200,144.600 383.200 C 145.590 383.200,146.400 383.380,146.400 383.600 C 146.400 383.844,148.267 384.000,151.200 384.000 C 154.133 384.000,156.000 383.844,156.000 383.600 C 156.000 383.380,156.799 383.200,157.776 383.200 C 158.753 383.200,159.664 383.020,159.800 382.800 C 159.936 382.580,160.667 382.400,161.424 382.400 C 162.181 382.400,162.800 382.220,162.800 382.000 C 162.800 381.780,163.239 381.600,163.776 381.600 C 164.313 381.600,164.864 381.420,165.000 381.200 C 165.136 380.980,165.597 380.800,166.024 380.800 C 166.451 380.800,166.800 380.620,166.800 380.400 C 166.800 380.180,167.160 380.000,167.600 380.000 C 168.040 380.000,168.400 379.820,168.400 379.600 C 168.400 379.380,168.760 379.200,169.200 379.200 C 169.640 379.200,170.000 379.020,170.000 378.800 C 170.000 378.580,170.360 378.400,170.800 378.400 C 171.240 378.400,171.600 378.220,171.600 378.000 C 171.600 377.780,171.870 377.600,172.200 377.600 C 172.530 377.600,172.800 377.420,172.800 377.200 C 172.800 376.980,173.030 376.800,173.312 376.800 C 173.593 376.800,174.083 376.440,174.400 376.000 C 174.717 375.560,175.174 375.200,175.415 375.200 C 176.346 375.200,180.811 370.495,180.543 369.797 C 180.400 369.424,180.453 369.002,180.661 368.860 C 181.929 367.987,184.876 362.455,186.277 358.317 L 187.400 355.000 187.512 324.100 L 187.624 293.200 175.622 293.200 L 163.621 293.200 163.510 321.300 L 163.400 349.400 162.510 351.207 C 157.917 360.525,144.241 360.521,140.031 351.200 C 139.239 349.447,139.217 348.681,139.209 321.933 C 139.204 306.826,139.091 294.181,138.957 293.833 C 138.743 293.275,137.292 293.200,126.757 293.200 L 114.800 293.200 114.800 322.617 M285.200 322.980 C 285.200 342.768,285.345 353.472,285.633 354.880 C 286.185 357.582,287.499 361.396,288.482 363.145 C 288.902 363.893,289.148 364.758,289.029 365.068 C 288.798 365.672,289.367 366.867,290.500 368.155 C 290.885 368.593,291.200 369.089,291.200 369.258 C 291.200 369.878,295.844 374.478,297.300 375.300 C 298.125 375.766,298.800 376.294,298.800 376.474 C 298.800 376.653,299.070 376.800,299.400 376.800 C 299.730 376.800,300.000 376.980,300.000 377.200 C 300.000 377.420,300.270 377.600,300.600 377.600 C 300.930 377.600,301.200 377.780,301.200 378.000 C 301.200 378.220,301.560 378.400,302.000 378.400 C 302.440 378.400,302.800 378.580,302.800 378.800 C 302.800 379.020,303.160 379.200,303.600 379.200 C 304.040 379.200,304.400 379.380,304.400 379.600 C 304.400 379.820,304.760 380.000,305.200 380.000 C 305.640 380.000,306.000 380.180,306.000 380.400 C 306.000 380.620,306.349 380.800,306.776 380.800 C 307.203 380.800,307.664 380.980,307.800 381.200 C 307.936 381.420,308.487 381.600,309.024 381.600 C 309.561 381.600,310.000 381.780,310.000 382.000 C 310.000 382.220,310.529 382.400,311.176 382.400 C 311.823 382.400,312.464 382.580,312.600 382.800 C 312.736 383.020,313.636 383.200,314.600 383.200 C 315.564 383.200,316.464 383.380,316.600 383.600 C 316.742 383.829,318.804 384.000,321.424 384.000 C 324.208 384.000,326.000 383.843,326.000 383.600 C 326.000 383.380,326.900 383.200,328.000 383.200 C 329.100 383.200,330.000 383.020,330.000 382.800 C 330.000 382.580,330.542 382.400,331.205 382.400 C 331.868 382.400,332.768 382.220,333.205 382.000 C 333.642 381.780,334.358 381.420,334.795 381.200 C 335.232 380.980,335.952 380.800,336.395 380.800 C 336.838 380.800,337.200 380.620,337.200 380.400 C 337.200 380.180,337.560 380.000,338.000 380.000 C 338.440 380.000,338.800 379.854,338.800 379.675 C 338.800 379.496,339.430 379.102,340.200 378.800 C 340.970 378.498,341.600 378.116,341.600 377.952 C 341.600 377.788,341.966 377.538,342.413 377.396 C 342.860 377.254,343.662 376.702,344.195 376.169 C 344.728 375.636,345.365 375.200,345.610 375.200 C 345.856 375.200,346.294 374.963,346.585 374.673 C 346.875 374.383,347.629 373.708,348.261 373.173 C 348.893 372.638,350.038 371.396,350.805 370.414 C 351.572 369.432,352.515 368.273,352.900 367.838 C 353.285 367.404,353.600 366.828,353.600 366.558 C 353.600 366.288,353.741 366.007,353.914 365.933 C 354.397 365.728,356.570 361.215,357.155 359.200 C 357.443 358.210,357.855 357.064,358.071 356.653 C 358.676 355.507,359.034 342.400,358.461 342.400 C 358.118 342.400,358.000 336.103,358.000 317.800 L 358.000 293.200 345.800 293.200 L 333.600 293.200 333.596 321.300 L 333.592 349.400 332.644 351.400 C 329.027 359.028,318.547 360.686,312.572 354.577 C 309.188 351.116,309.414 353.393,309.292 321.500 L 309.184 293.200 297.192 293.200 L 285.200 293.200 285.200 322.980 " stroke="none" fill="#fafafb" fill-rule="evenodd"></path><path id="path3" d="M21.600 293.344 C 21.600 293.850,23.946 298.757,24.400 299.200 C 24.513 299.310,25.189 300.525,25.902 301.900 C 26.616 303.275,27.784 305.525,28.498 306.900 C 29.211 308.275,29.886 309.490,29.998 309.600 C 30.109 309.710,31.023 311.420,32.028 313.400 C 33.034 315.380,34.772 318.710,35.890 320.800 C 37.008 322.890,38.345 325.410,38.861 326.400 C 39.378 327.390,39.894 328.290,40.008 328.400 C 40.123 328.510,40.842 329.860,41.606 331.400 C 42.371 332.940,43.132 334.260,43.298 334.333 C 43.464 334.407,43.600 334.812,43.600 335.233 C 43.600 335.655,43.736 336.000,43.902 336.000 C 44.069 336.000,44.433 336.517,44.713 337.148 C 44.992 337.780,46.746 341.147,48.611 344.632 C 52.068 351.093,52.661 353.099,51.500 354.401 C 51.075 354.878,51.104 354.882,51.700 354.432 C 52.809 353.592,52.609 350.838,51.256 348.325 C 50.628 347.156,49.254 344.580,48.204 342.600 C 47.155 340.620,45.712 337.920,44.999 336.600 C 43.321 333.494,40.777 328.722,38.507 324.421 C 37.513 322.539,36.028 319.740,35.206 318.200 C 34.384 316.660,32.849 313.780,31.796 311.800 C 29.652 307.772,28.071 304.824,25.684 300.400 C 24.794 298.750,23.611 296.500,23.056 295.400 L 22.046 293.400 35.503 293.295 C 45.943 293.213,49.065 293.302,49.426 293.695 C 49.869 294.175,53.907 301.927,61.200 316.300 C 63.015 319.875,64.702 322.796,64.949 322.791 C 65.197 322.787,66.805 319.952,68.521 316.491 C 70.238 313.031,73.574 306.420,75.935 301.800 L 80.227 293.400 93.914 293.295 C 101.441 293.237,107.600 293.306,107.600 293.449 C 107.600 293.592,106.185 296.339,104.456 299.554 C 102.727 302.770,100.361 307.200,99.197 309.400 C 98.033 311.600,96.590 314.300,95.989 315.400 C 94.849 317.486,93.031 320.911,89.300 328.000 C 88.084 330.310,86.777 332.740,86.395 333.400 C 86.012 334.060,84.666 336.580,83.402 339.000 C 79.640 346.203,77.916 349.377,77.548 349.780 C 77.128 350.239,77.089 364.805,77.506 365.464 C 77.668 365.719,77.743 362.674,77.674 358.697 L 77.548 351.467 78.866 348.833 C 79.591 347.385,80.280 346.110,80.398 346.000 C 80.515 345.890,81.346 344.360,82.244 342.600 C 84.001 339.155,87.467 332.599,89.749 328.400 C 90.527 326.970,91.838 324.450,92.663 322.800 C 93.489 321.150,94.263 319.710,94.384 319.600 C 94.506 319.490,95.163 318.320,95.844 317.000 C 96.526 315.680,97.716 313.430,98.488 312.000 C 101.441 306.533,103.798 302.070,105.566 298.600 C 106.575 296.620,107.535 294.940,107.700 294.867 C 107.865 294.793,108.000 294.298,108.000 293.767 L 108.000 292.800 93.900 292.810 L 79.800 292.820 77.600 297.400 C 76.390 299.919,75.265 301.985,75.100 301.990 C 74.935 301.996,74.800 302.345,74.800 302.767 C 74.800 303.188,74.663 303.593,74.495 303.667 C 74.327 303.740,72.193 307.751,69.753 312.580 C 67.313 317.410,65.139 321.420,64.922 321.493 C 64.705 321.565,63.273 319.144,61.739 316.112 C 60.206 313.080,56.917 306.595,54.430 301.700 L 49.908 292.800 35.754 292.800 C 24.089 292.800,21.600 292.896,21.600 293.344 M114.272 293.061 C 113.834 293.500,113.968 349.861,114.415 353.000 C 114.866 356.169,116.534 361.507,117.727 363.600 C 118.166 364.370,118.722 365.362,118.963 365.804 C 119.203 366.246,119.877 367.236,120.459 368.004 C 121.042 368.772,121.606 369.760,121.713 370.200 C 121.891 370.932,121.911 370.925,121.954 370.112 C 121.979 369.624,121.126 367.885,120.057 366.248 C 114.832 358.244,114.800 357.981,114.800 322.617 L 114.800 293.200 126.757 293.200 C 137.292 293.200,138.743 293.275,138.957 293.833 C 139.091 294.181,139.204 306.826,139.209 321.933 C 139.217 348.681,139.239 349.447,140.031 351.200 C 144.241 360.521,157.917 360.525,162.510 351.207 L 163.400 349.400 163.510 321.300 L 163.621 293.200 175.622 293.200 L 187.624 293.200 187.512 324.100 L 187.400 355.000 186.269 358.343 C 185.647 360.182,184.778 362.342,184.338 363.143 C 182.549 366.401,181.013 368.800,180.715 368.800 C 180.542 368.800,180.400 369.070,180.400 369.400 C 180.400 369.730,180.670 370.000,181.000 370.000 C 181.330 370.000,181.600 369.680,181.600 369.288 C 181.600 368.897,181.960 368.317,182.400 368.000 C 182.840 367.683,183.200 367.118,183.200 366.745 C 183.200 366.372,183.343 366.007,183.519 365.933 C 184.444 365.547,187.144 357.915,187.963 353.376 C 188.253 351.768,188.400 341.161,188.400 321.876 L 188.400 292.800 175.800 292.800 L 163.200 292.800 163.200 320.072 C 163.200 346.471,163.122 348.494,162.013 350.800 C 160.710 353.510,159.011 355.301,156.855 356.236 C 156.055 356.583,155.087 357.032,154.705 357.234 C 153.767 357.729,148.110 357.701,147.800 357.200 C 147.664 356.980,147.281 356.800,146.948 356.800 C 145.554 356.800,142.175 354.016,141.123 352.000 C 140.836 351.450,140.421 350.872,140.201 350.715 C 139.943 350.531,139.729 340.201,139.600 321.715 L 139.400 293.000 126.972 292.894 C 120.137 292.836,114.422 292.911,114.272 293.061 M199.843 293.433 C 199.528 294.254,199.536 313.921,199.852 315.100 L 200.093 316.000 211.147 315.910 L 222.200 315.820 211.400 315.610 L 200.600 315.400 200.494 304.311 L 200.387 293.223 205.894 293.099 L 211.400 292.975 205.743 292.888 C 200.900 292.813,200.051 292.891,199.843 293.433 " stroke="none" fill="#3ebaf0" fill-rule="evenodd"></path><path id="path4" d="M258.300 293.097 L 272.800 293.210 272.800 295.250 C 272.800 297.089,272.412 297.981,268.845 304.345 C 266.670 308.225,264.445 312.210,263.900 313.200 C 263.356 314.190,262.316 316.080,261.590 317.400 C 260.496 319.388,254.838 329.529,250.264 337.700 C 249.679 338.745,248.750 340.410,248.200 341.400 C 247.650 342.390,246.750 344.010,246.200 345.000 C 245.650 345.990,244.728 347.655,244.151 348.700 C 243.573 349.745,242.785 351.140,242.399 351.800 C 240.340 355.322,239.260 357.526,239.483 357.749 C 239.621 357.887,247.353 358.000,256.667 358.000 L 273.600 358.000 273.613 361.300 C 273.620 363.258,273.824 364.861,274.113 365.241 C 274.585 365.862,274.655 359.495,274.191 358.100 C 274.062 357.710,270.267 357.600,257.013 357.600 C 247.656 357.600,240.000 357.515,240.000 357.412 C 240.000 357.309,240.388 356.544,240.862 355.712 C 241.335 354.880,242.100 353.480,242.562 352.600 C 243.023 351.720,243.490 350.910,243.600 350.800 C 243.710 350.690,244.177 349.880,244.638 349.000 C 245.100 348.120,245.891 346.680,246.397 345.800 C 246.904 344.920,247.859 343.210,248.521 342.000 C 249.183 340.790,250.538 338.360,251.532 336.600 C 252.526 334.840,253.820 332.500,254.408 331.400 C 254.995 330.300,255.892 328.680,256.400 327.800 C 256.908 326.920,257.700 325.480,258.162 324.600 C 258.623 323.720,259.090 322.910,259.200 322.800 C 259.310 322.690,259.777 321.880,260.238 321.000 C 260.700 320.120,261.490 318.680,261.995 317.800 C 263.051 315.959,263.283 315.544,268.797 305.600 C 271.054 301.530,273.068 297.990,273.273 297.732 C 273.477 297.475,273.589 296.305,273.522 295.132 L 273.400 293.000 258.600 292.992 L 243.800 292.985 258.300 293.097 M284.513 323.500 C 284.669 355.573,284.660 355.395,286.380 359.800 C 287.345 362.273,288.962 365.314,289.097 364.909 C 289.174 364.679,288.895 363.881,288.477 363.138 C 287.499 361.395,286.184 357.578,285.633 354.880 C 285.345 353.472,285.200 342.768,285.200 322.980 L 285.200 293.200 297.192 293.200 L 309.184 293.200 309.292 321.500 C 309.414 353.393,309.188 351.116,312.572 354.577 C 318.547 360.686,329.027 359.028,332.644 351.400 L 333.592 349.400 333.596 321.300 L 333.600 293.200 345.800 293.200 L 358.000 293.200 358.000 317.800 C 358.000 335.646,358.123 342.400,358.447 342.400 C 358.715 342.400,358.797 342.040,358.652 341.500 C 358.519 341.005,358.408 329.842,358.405 316.694 L 358.400 292.789 345.900 292.894 L 333.400 293.000 333.200 321.416 L 333.000 349.832 331.672 352.016 C 330.214 354.414,328.048 356.248,325.713 357.061 C 323.938 357.679,318.159 357.781,317.800 357.200 C 317.664 356.980,317.281 356.800,316.948 356.800 C 315.094 356.800,310.400 351.962,310.400 350.052 C 310.400 349.609,310.220 349.136,310.000 349.000 C 309.740 348.839,309.600 338.996,309.600 320.776 L 309.600 292.800 296.982 292.800 L 284.363 292.800 284.513 323.500 " stroke="none" fill="#f46e6c" fill-rule="evenodd"></path></g></svg>