<?xml version="1.0" encoding="UTF-8"?>
<svg version="1.1" xmlns="http://www.w3.org/2000/svg" width="64" height="64">
<path d="M0 0 C6.99133998 4.90511419 11.23607579 10.59251079 13 19 C13.45263967 25.67643509 12.81333364 32.57986891 8.40625 37.9375 C6.62456203 40.55064236 6.68907187 42.12315393 6.8125 45.25 C6.83957031 46.14203125 6.86664063 47.0340625 6.89453125 47.953125 C6.94673828 48.96632813 6.94673828 48.96632813 7 50 C5.948125 49.979375 4.89625 49.95875 3.8125 49.9375 C0.24861821 49.85825593 0.24861821 49.85825593 -2.15625 50.515625 C-6.98985006 51.33893051 -11.90166415 50.92476465 -16.78710938 50.69726562 C-22.1551321 50.58177828 -25.67379759 51.3795579 -30.29760742 54.15600586 C-32 55 -32 55 -35 54.75 C-35.66 54.5025 -36.32 54.255 -37 54 C-37.75 51.75 -37.75 51.75 -38 49 C-36.0625 46.6875 -36.0625 46.6875 -34 45 C-35.27076453 41.6211915 -36.78860006 38.6607537 -38.625 35.5625 C-42.204949 28.4132566 -42.41400174 20.76739119 -40.1484375 13.12890625 C-37.11804331 6.3569029 -32.47942913 1.2639714 -25.8359375 -2.09375 C-16.82498695 -5.53255798 -8.23931367 -5.03266186 0 0 Z M-19 -1 C-19.33 -0.34 -19.66 0.32 -20 1 C-16.04 2.98 -16.04 2.98 -12 5 C-11.34 3.02 -10.68 1.04 -10 -1 C-12.97 -1 -15.94 -1 -19 -1 Z M-2 2 C-2.33 2.66 -2.66 3.32 -3 4 C-5.0625 5.125 -5.0625 5.125 -7 6 C-6.07006962 8.41349729 -6.07006962 8.41349729 -2.5625 9.375 C1 11 1 11 2.4375 13.1875 C2.623125 13.785625 2.80875 14.38375 3 15 C0.36 14.34 -2.28 13.68 -5 13 C-3.68 15.64 -2.36 18.28 -1 21 C2.63 21 6.26 21 10 21 C8.58058957 13.77391055 6.38477346 7.40695001 0.1875 3 C-0.534375 2.67 -1.25625 2.34 -2 2 Z M-30 4 C-34.26613033 8.72733361 -38 13.33266018 -38 20 C-33.38 20 -28.76 20 -24 20 C-23.34 18.02 -22.68 16.04 -22 14 C-24.97 14.66 -27.94 15.32 -31 16 C-28.87967094 11.75934187 -28.08529149 10.99514236 -24 9 C-21.1875 8.3125 -21.1875 8.3125 -19 8 C-21.69330122 6.20446585 -23.1460601 5.57303539 -26.1875 4.875 C-28.0746875 4.441875 -28.0746875 4.441875 -30 4 Z M-17 10 C-17 10.99 -17 11.98 -17 13 C-15.35 12.67 -13.7 12.34 -12 12 C-12 11.01 -12 10.02 -12 9 C-14.21081851 8.89459074 -14.21081851 8.89459074 -17 10 Z M-11 16 C-11.33 17.65 -11.66 19.3 -12 21 C-10.35 21 -8.7 21 -7 21 C-7.96885372 19.31503702 -8.96986723 17.64821244 -10 16 C-10.33 16 -10.66 16 -11 16 Z M-18 18 C-18.99 19.485 -18.99 19.485 -20 21 C-19.01 21 -18.02 21 -17 21 C-17.33 20.01 -17.66 19.02 -18 18 Z M-38 26 C-37.39211447 31.46084261 -37.39211447 31.46084261 -36 34 C-30.06 34 -24.12 34 -18 34 C-18 31.36 -18 28.72 -18 26 C-24.6 26 -31.2 26 -38 26 Z M-13 26 C-13.4472136 31.47825081 -13.4472136 31.47825081 -12 34 C-5.4 34 1.2 34 8 34 C8.66 31.36 9.32 28.72 10 26 C2.41 26 -5.18 26 -13 26 Z M-16 35 C-16 35.66 -16 36.32 -16 37 C-15.34 36.67 -14.68 36.34 -14 36 C-14.66 35.67 -15.32 35.34 -16 35 Z M-24 40 C-24 40.66 -24 41.32 -24 42 C-24.66 42 -25.32 42 -26 42 C-25.67 42.99 -25.34 43.98 -25 45 C-22.69 43.68 -20.38 42.36 -18 41 C-18 40.34 -18 39.68 -18 39 C-21.7763932 38.7018576 -21.7763932 38.7018576 -24 40 Z M-9 39 C-9.66 40.32 -10.32 41.64 -11 43 C-10.443125 42.649375 -9.88625 42.29875 -9.3125 41.9375 C-7 41 -7 41 -4.625 41.5 C-1.24493917 42.14382111 0.84707029 41.2465071 4 40 C4 39.67 4 39.34 4 39 C-0.29 39 -4.58 39 -9 39 Z M-29 46 C-30.485 47.98 -30.485 47.98 -32 50 C-30.35 49.34 -28.7 48.68 -27 48 C-27.66 47.34 -28.32 46.68 -29 46 Z " fill="#C146F4" transform="translate(47,9)"/>
<path d="M0 0 C5.60747281 3.93419496 9.98155964 8.32888356 12 15 C12.495 18.96 12.495 18.96 13 23 C-4.82 23 -22.64 23 -41 23 C-41 14.90703179 -39.47483939 10.04138929 -34.203125 3.91015625 C-24.53786289 -5.2331817 -11.43265864 -6.9831915 0 0 Z M-19 -1 C-19.33 -0.34 -19.66 0.32 -20 1 C-16.04 2.98 -16.04 2.98 -12 5 C-11.34 3.02 -10.68 1.04 -10 -1 C-12.97 -1 -15.94 -1 -19 -1 Z M-2 2 C-2.33 2.66 -2.66 3.32 -3 4 C-5.0625 5.125 -5.0625 5.125 -7 6 C-6.07006962 8.41349729 -6.07006962 8.41349729 -2.5625 9.375 C1 11 1 11 2.4375 13.1875 C2.623125 13.785625 2.80875 14.38375 3 15 C0.36 14.34 -2.28 13.68 -5 13 C-3.68 15.64 -2.36 18.28 -1 21 C2.63 21 6.26 21 10 21 C8.58058957 13.77391055 6.38477346 7.40695001 0.1875 3 C-0.534375 2.67 -1.25625 2.34 -2 2 Z M-30 4 C-34.26613033 8.72733361 -38 13.33266018 -38 20 C-33.38 20 -28.76 20 -24 20 C-23.34 18.02 -22.68 16.04 -22 14 C-24.97 14.66 -27.94 15.32 -31 16 C-28.87967094 11.75934187 -28.08529149 10.99514236 -24 9 C-21.1875 8.3125 -21.1875 8.3125 -19 8 C-21.69330122 6.20446585 -23.1460601 5.57303539 -26.1875 4.875 C-28.0746875 4.441875 -28.0746875 4.441875 -30 4 Z M-17 10 C-17 10.99 -17 11.98 -17 13 C-15.35 12.67 -13.7 12.34 -12 12 C-12 11.01 -12 10.02 -12 9 C-14.21081851 8.89459074 -14.21081851 8.89459074 -17 10 Z M-11 16 C-11.33 17.65 -11.66 19.3 -12 21 C-10.35 21 -8.7 21 -7 21 C-7.96885372 19.31503702 -8.96986723 17.64821244 -10 16 C-10.33 16 -10.66 16 -11 16 Z M-18 18 C-18.99 19.485 -18.99 19.485 -20 21 C-19.01 21 -18.02 21 -17 21 C-17.33 20.01 -17.66 19.02 -18 18 Z " fill="#FF65CC" transform="translate(47,9)"/>
<path d="M0 0 C1.32 0.33 2.64 0.66 4 1 C3.34 2.98 2.68 4.96 2 7 C2.99 6.34 3.98 5.68 5 5 C6.67293936 5.30027117 8.33985384 5.63557767 10 6 C11.33568021 5.67619874 12.66923011 5.34342449 14 5 C15.32 5.33 16.64 5.66 18 6 C18.495 10.455 18.495 10.455 19 15 C17.948125 14.979375 16.89625 14.95875 15.8125 14.9375 C12.24861821 14.85825593 12.24861821 14.85825593 9.84375 15.515625 C5.01014994 16.33893051 0.09833585 15.92476465 -4.78710938 15.69726562 C-10.1551321 15.58177828 -13.67379759 16.3795579 -18.29760742 19.15600586 C-20 20 -20 20 -23 19.75 C-23.66 19.5025 -24.32 19.255 -25 19 C-25.75 16.75 -25.75 16.75 -26 14 C-24.68870078 12.64499081 -23.35308313 11.31328657 -22 10 C-21.19684346 6.85518209 -21.19684346 6.85518209 -21 4 C-20.38125 3.87625 -19.7625 3.7525 -19.125 3.625 C-16.80879168 3.12802644 -16.80879168 3.12802644 -15 1 C-13 1.375 -13 1.375 -11 2 C-10.34 2 -9.68 2 -9 2 C-9.33 2.99 -9.66 3.98 -10 5 C-10.66 5 -11.32 5 -12 5 C-12 5.66 -12 6.32 -12 7 C-12.66 7 -13.32 7 -14 7 C-13.34 7.66 -12.68 8.32 -12 9 C-10.88625 8.34 -9.7725 7.68 -8.625 7 C-5.25 5 -5.25 5 -3 5 C-1.3553326 2.53673288 -1.3553326 2.53673288 0 0 Z M-17 11 C-18.485 12.98 -18.485 12.98 -20 15 C-18.35 14.34 -16.7 13.68 -15 13 C-15.66 12.34 -16.32 11.68 -17 11 Z " fill="#F26FD4" transform="translate(35,44)"/>
<path d="M0 0 C1.32 0.33 2.64 0.66 4 1 C3.34 2.98 2.68 4.96 2 7 C2.99 6.34 3.98 5.68 5 5 C6.67293936 5.30027117 8.33985384 5.63557767 10 6 C11.33568021 5.67619874 12.66923011 5.34342449 14 5 C15.32 5.33 16.64 5.66 18 6 C18.495 10.455 18.495 10.455 19 15 C17.948125 14.979375 16.89625 14.95875 15.8125 14.9375 C12.24861821 14.85825593 12.24861821 14.85825593 9.84375 15.515625 C5.01014994 16.33893051 0.09833585 15.92476465 -4.78710938 15.69726562 C-10.1551321 15.58177828 -13.67379759 16.3795579 -18.29760742 19.15600586 C-20 20 -20 20 -23 19.75 C-23.66 19.5025 -24.32 19.255 -25 19 C-25.75 16.75 -25.75 16.75 -26 14 C-24.68870078 12.64499081 -23.35308313 11.31328657 -22 10 C-21.60986284 8.0103005 -21.26797351 6.00980131 -21 4 C-20.34 3.67 -19.68 3.34 -19 3 C-18.75 6.25 -18.75 6.25 -19 10 C-20.9375 12.1875 -20.9375 12.1875 -23 14 C-23.64939772 16.05987468 -23.64939772 16.05987468 -24 18 C-18.97966734 16.89382501 -15.38311574 15.72463952 -11 13 C-9.34450469 12.61500109 -7.6777567 12.27206865 -6 12 C-5.34 11.67 -4.68 11.34 -4 11 C-4 11.99 -4 12.98 -4 14 C-2.02 13.34 -0.04 12.68 2 12 C2.33 12.66 2.66 13.32 3 14 C5.64 13.67 8.28 13.34 11 13 C11.33 11.35 11.66 9.7 12 8 C11.01994721 8.98005279 10.10242145 10.02138248 9.1875 11.0625 C7 13 7 13 3 13 C3 12.34 3 11.68 3 11 C3.9590625 10.566875 3.9590625 10.566875 4.9375 10.125 C7.15206079 9.17176549 7.15206079 9.17176549 8 7 C6.948125 7.6496875 6.948125 7.6496875 5.875 8.3125 C2.97442594 10.01501086 0.02129125 11.52448567 -3 13 C-3.40322225 9.47180533 -3.18545105 8.25723855 -1.0625 5.3125 C-0.381875 4.549375 0.29875 3.78625 1 3 C1.33 2.34 1.66 1.68 2 1 C1.34 0.67 0.68 0.34 0 0 Z " fill="#FC60CB" transform="translate(35,44)"/>
<path d="M0 0 C7.92 0 15.84 0 24 0 C24 4.29 24 8.58 24 13 C21.03 13.66 18.06 14.32 15 15 C15.33 14.34 15.66 13.68 16 13 C13.03824877 13.61277612 11.61941217 14.25372522 9 16 C8.67 15.67 8.34 15.34 8 15 C7.01 16.485 7.01 16.485 6 18 C2.97977376 15.41123465 1.43801921 12.69776369 0 9 C0 6.03 0 3.06 0 0 Z M2 2 C2.60788553 7.46084261 2.60788553 7.46084261 4 10 C9.94 10 15.88 10 22 10 C22 7.36 22 4.72 22 2 C15.4 2 8.8 2 2 2 Z " fill="#CB5CF1" transform="translate(7,33)"/>
<path d="M0 0 C1.65 0.66 3.3 1.32 5 2 C3.35 4.31 1.7 6.62 0 9 C0.763125 8.79375 1.52625 8.5875 2.3125 8.375 C5 8 5 8 8 10 C5.69 10.33 3.38 10.66 1 11 C1.78375 11.763125 2.5675 12.52625 3.375 13.3125 C8 18.04761905 8 18.04761905 8 22 C3.71 22 -0.58 22 -5 22 C-4.34 20.35 -3.68 18.7 -3 17 C-5.34533951 16.23043864 -5.34533951 16.23043864 -8 16 C-9.8354799 17.33378575 -9.8354799 17.33378575 -11 19 C-9.79310745 15.89656201 -8.49403054 12.98806107 -7 10 C-12.445 11.485 -12.445 11.485 -18 13 C-18 12.01 -18 11.02 -18 10 C-16.35 9.34 -14.7 8.68 -13 8 C-12.67 8.33 -12.34 8.66 -12 9 C-9.69 8.34 -7.38 7.68 -5 7 C-5 6.01 -5 5.02 -5 4 C-3.68 4.66 -2.36 5.32 -1 6 C-1 5.01 -1 4.02 -1 3 C-0.67 2.01 -0.34 1.02 0 0 Z M-6 9 C-6 9.99 -6 10.98 -6 12 C-4.35 11.67 -2.7 11.34 -1 11 C-1 10.01 -1 9.02 -1 8 C-3.21081851 7.89459074 -3.21081851 7.89459074 -6 9 Z M0 15 C-0.33 16.65 -0.66 18.3 -1 20 C0.65 20 2.3 20 4 20 C3.03114628 18.31503702 2.03013277 16.64821244 1 15 C0.67 15 0.34 15 0 15 Z " fill="#FF4FC6" transform="translate(36,10)"/>
<path d="M0 0 C8.58 0 17.16 0 26 0 C26 8.50231611 25.59185471 10.717404 20.375 16.9375 C19 18 19 18 17 18 C17 17.34 17 16.68 17 16 C13.04 15.67 9.08 15.34 5 15 C5 13.68 5 12.36 5 11 C10.61 11 16.22 11 22 11 C22.33 8.69 22.66 6.38 23 4 C23.66 3.01 24.32 2.02 25 1 C16.75 1 8.5 1 0 1 C0 0.67 0 0.34 0 0 Z " fill="#D07FF9" transform="translate(33,33)"/>
<path d="M0 0 C-0.33 0.804375 -0.66 1.60875 -1 2.4375 C-2.06059041 4.69681125 -2.06059041 4.69681125 -2 6 C-1.34 5.67 -0.68 5.34 0 5 C-0.33 6.32 -0.66 7.64 -1 9 C-0.34 9.33 0.32 9.66 1 10 C1 9.01 1 8.02 1 7 C1.66 7 2.32 7 3 7 C3.33 6.01 3.66 5.02 4 4 C4.33 6.31 4.66 8.62 5 11 C1.82212459 12.0592918 -0.42588943 12.11458939 -3.76171875 12.09765625 C-4.87998047 12.09443359 -5.99824219 12.09121094 -7.15039062 12.08789062 C-8.31763672 12.07951172 -9.48488281 12.07113281 -10.6875 12.0625 C-11.86634766 12.05798828 -13.04519531 12.05347656 -14.25976562 12.04882812 C-17.17322789 12.03703273 -20.08658863 12.0205727 -23 12 C-23 9.69 -23 7.38 -23 5 C-22.34 5 -21.68 5 -21 5 C-21 6.65 -21 8.3 -21 10 C-16.05 10 -11.1 10 -6 10 C-5.67 8.35 -5.34 6.7 -5 5 C-4.67 4.34 -4.34 3.68 -4 3 C-4.7425 3.33 -5.485 3.66 -6.25 4 C-9 5 -9 5 -13 5 C-13 4.34 -13 3.68 -13 3 C-11.39743892 2.49487756 -9.79288208 1.99608373 -8.1875 1.5 C-7.29417969 1.2215625 -6.40085937 0.943125 -5.48046875 0.65625 C-3 0 -3 0 0 0 Z " fill="#FF6ECF" transform="translate(29,20)"/>
<path d="M0 0 C0.66 0 1.32 0 2 0 C0.92598892 2.91517292 0.22189824 4.77810176 -2 7 C-2 8.32 -2 9.64 -2 11 C-1.0925 10.360625 -0.185 9.72125 0.75 9.0625 C3.39221381 7.38571047 4.9898499 6.46310002 8 6 C7.34 7.32 6.68 8.64 6 10 C5.01 10 4.02 10 3 10 C3 10.66 3 11.32 3 12 C6.91402949 10.73058503 8.79072873 9.48832306 11 6 C11.66 6.33 12.32 6.66 13 7 C12.67 8.65 12.34 10.3 12 12 C5.85152838 14.37554585 5.85152838 14.37554585 2 13 C1.34 13 0.68 13 0 13 C-1.32 13 -2.64 13 -4 13 C-4.33 12.34 -4.66 11.68 -5 11 C-5.66 11.66 -6.32 12.32 -7 13 C-9.4375 13.125 -9.4375 13.125 -12 13 C-12.99 13 -13.98 13 -15 13 C-12.83892872 9.75839308 -11.41724208 8.74835641 -8 7 C-7.113125 6.87625 -6.22625 6.7525 -5.3125 6.625 C-4.549375 6.41875 -3.78625 6.2125 -3 6 C-1.68931667 3.55711372 -1.68931667 3.55711372 -1 1 C-0.67 0.67 -0.34 0.34 0 0 Z " fill="#FEA3DE" transform="translate(35,45)"/>
<path d="M0 0 C7.3355239 0.36677619 11.84640417 4.84640417 16.8125 9.8125 C20.30949772 14.90812525 22 19.81943221 22 26 C17.05 25.67 12.1 25.34 7 25 C7.33 24.34 7.66 23.68 8 23 C11.63 23.33 15.26 23.66 19 24 C18.21012527 22.08259417 17.41802852 20.16610359 16.625 18.25 C16.18414062 17.18265625 15.74328125 16.1153125 15.2890625 15.015625 C13.47872715 10.18740889 13.47872715 10.18740889 10 6.6875 C9.34 6.460625 8.68 6.23375 8 6 C7.01 6.495 7.01 6.495 6 7 C6 6.34 6 5.68 6 5 C4.68 4.67 3.36 4.34 2 4 C2 3.34 2 2.68 2 2 C1.34 1.34 0.68 0.68 0 0 Z " fill="#FF5DCA" transform="translate(38,6)"/>
<path d="M0 0 C1.29567565 2.5913513 1.34250494 4.12295849 1 7 C-0.29103643 8.3743291 -1.6256709 9.70896357 -3 11 C-3.64819945 13.06538571 -3.64819945 13.06538571 -4 15 C1.02033266 13.89382501 4.61688426 12.72463952 9 10 C10.65549531 9.61500109 12.3222433 9.27206865 14 9 C14.66 8.67 15.32 8.34 16 8 C16 8.99 16 9.98 16 11 C17.98 10.34 19.96 9.68 22 9 C22.33 9.66 22.66 10.32 23 11 C24.65 11 26.3 11 28 11 C27.67 11.66 27.34 12.32 27 13 C25.081875 12.93039063 25.081875 12.93039063 23.125 12.859375 C21.41669021 12.82182973 19.70835492 12.78543255 18 12.75 C17.16082031 12.71648438 16.32164063 12.68296875 15.45703125 12.6484375 C10.01096266 12.56400233 6.37883654 13.33498049 1.69140625 16.15820312 C0 17 0 17 -3 16.75 C-3.66 16.5025 -4.32 16.255 -5 16 C-5.75 13.75 -5.75 13.75 -6 11 C-4.68870078 9.64499081 -3.35308313 8.31328657 -2 7 C-1.2730774 3.89160979 -1.2730774 3.89160979 -1 1 C-0.67 0.67 -0.34 0.34 0 0 Z " fill="#FD42C3" transform="translate(15,47)"/>
<path d="M0 0 C5.61 0 11.22 0 17 0 C14 5 14 5 11 6 C11 5.34 11 4.68 11 4 C7.04 3.67 3.08 3.34 -1 3 C-0.67 2.01 -0.34 1.02 0 0 Z " fill="#A169EE" transform="translate(39,45)"/>
<path d="M0 0 C1.65 0.66 3.3 1.32 5 2 C0.81538462 7.78461538 0.81538462 7.78461538 -3.3125 8.875 C-4.6428125 8.936875 -4.6428125 8.936875 -6 9 C-6.33 9.99 -6.66 10.98 -7 12 C-7 11.34 -7 10.68 -7 10 C-12.445 11.485 -12.445 11.485 -18 13 C-18 12.01 -18 11.02 -18 10 C-16.35 9.34 -14.7 8.68 -13 8 C-12.67 8.33 -12.34 8.66 -12 9 C-9.69 8.34 -7.38 7.68 -5 7 C-5 6.01 -5 5.02 -5 4 C-3.68 4.66 -2.36 5.32 -1 6 C-1 5.01 -1 4.02 -1 3 C-0.67 2.01 -0.34 1.02 0 0 Z " fill="#FF43C2" transform="translate(36,10)"/>
<path d="M0 0 C5.61 0 11.22 0 17 0 C17 0.66 17 1.32 17 2 C15.35 2.66 13.7 3.32 12 4 C12.33 3.34 12.66 2.68 13 2 C10.03824877 2.61277612 8.61941217 3.25372522 6 5 C5.67 4.67 5.34 4.34 5 4 C4.01 5.485 4.01 5.485 3 7 C1.5 5.75 1.5 5.75 0 4 C0 2.68 0 1.36 0 0 Z " fill="#F195E3" transform="translate(10,44)"/>
<path d="M0 0 C1.32 0.33 2.64 0.66 4 1 C3.34 2.98 2.68 4.96 2 7 C2.99 7.33 3.98 7.66 5 8 C2.31158141 10.25245881 0.35358125 11.88213958 -3 13 C-3.40322225 9.47180533 -3.18545105 8.25723855 -1.0625 5.3125 C-0.381875 4.549375 0.29875 3.78625 1 3 C1.33 2.34 1.66 1.68 2 1 C1.34 0.67 0.68 0.34 0 0 Z " fill="#EA55D0" transform="translate(35,44)"/>
<path d="M0 0 C-0.33 0.99 -0.66 1.98 -1 3 C-1.95712891 3.09087891 -1.95712891 3.09087891 -2.93359375 3.18359375 C-4.17302734 3.30927734 -4.17302734 3.30927734 -5.4375 3.4375 C-6.67306641 3.55931641 -6.67306641 3.55931641 -7.93359375 3.68359375 C-9.98662025 3.78930815 -9.98662025 3.78930815 -11 5 C-12.66617115 5.04063832 -14.33388095 5.042721 -16 5 C-16.33 4.01 -16.66 3.02 -17 2 C-11.21642935 -0.01167675 -6.09781001 -0.22084624 0 0 Z " fill="#FF47C4" transform="translate(38,5)"/>
<path d="M0 0 C0.33 0.99 0.66 1.98 1 3 C2.98 2.34 4.96 1.68 7 1 C7.33 1.66 7.66 2.32 8 3 C9.65 3 11.3 3 13 3 C12.67 3.66 12.34 4.32 12 5 C4.74 5 -2.52 5 -10 5 C-6.31137299 2.23352975 -5.21356805 1.68328131 -1 1 C-0.67 0.67 -0.34 0.34 0 0 Z " fill="#F347C8" transform="translate(30,55)"/>
<path d="M0 0 C1.671549 0.30791692 3.33805547 0.64386903 5 1 C6.34371874 0.71136728 7.68054333 0.38460758 9 0 C3.9059081 6.70459519 3.9059081 6.70459519 0.125 7.9375 C-0.57625 7.958125 -1.2775 7.97875 -2 8 C-2 7.34 -2 6.68 -2 6 C-1.360625 5.71125 -0.72125 5.4225 -0.0625 5.125 C2.15206079 4.17176549 2.15206079 4.17176549 3 2 C1.35 2 -0.3 2 -2 2 C-1.34 1.34 -0.68 0.68 0 0 Z " fill="#FA44C4" transform="translate(40,49)"/>
<path d="M0 0 C0.66 0.99 1.32 1.98 2 3 C0.8125 4.5 0.8125 4.5 -1 6 C-3.5 6.1875 -3.5 6.1875 -6 6 C-6.99 6 -7.98 6 -9 6 C-6.49316923 2.23975384 -4.13506066 1.60807914 0 0 Z " fill="#FD90D9" transform="translate(29,52)"/>
<path d="M0 0 C0.66 0 1.32 0 2 0 C0.92598892 2.91517292 0.22189824 4.77810176 -2 7 C-2.64767793 9.57061311 -2.64767793 9.57061311 -3 12 C-3.45375 11.360625 -3.9075 10.72125 -4.375 10.0625 C-5.83921726 7.90297594 -5.83921726 7.90297594 -8 7 C-7.21625 6.938125 -6.4325 6.87625 -5.625 6.8125 C-4.75875 6.544375 -3.8925 6.27625 -3 6 C-1.68931667 3.55711372 -1.68931667 3.55711372 -1 1 C-0.67 0.67 -0.34 0.34 0 0 Z " fill="#FEBBE5" transform="translate(35,45)"/>
<path d="M0 0 C3.88019859 1.25844278 5.9411842 2.42416203 8 6 C8 6.99 8 7.98 8 9 C6.02 9 4.04 9 2 9 C2.99 8.34 3.98 7.68 5 7 C4.01 6.01 3.02 5.02 2 4 C1.01 4.495 1.01 4.495 0 5 C0 3.35 0 1.7 0 0 Z " fill="#FF79D1" transform="translate(34,22)"/>
<path d="M0 0 C0.99 0 1.98 0 3 0 C5.1519437 3.22791555 5.20086443 4.28400809 5 8 C7.97 8 10.94 8 14 8 C14 8.33 14 8.66 14 9 C10.7 9 7.4 9 4 9 C2.68 6.03 1.36 3.06 0 0 Z " fill="#FE74D0" transform="translate(40,23)"/>
<path d="M0 0 C0.33 0.99 0.66 1.98 1 3 C2.65 2.34 4.3 1.68 6 1 C2.92000054 4.67230705 0.7517398 5.56802365 -4 6 C-2.84826645 3.53199953 -1.95216435 1.95216435 0 0 Z " fill="#FE44C3" transform="translate(16,55)"/>
<path d="M0 0 C1.98 0 3.96 0 6 0 C5.34 1.98 4.68 3.96 4 6 C2 4.6875 2 4.6875 0 3 C0 2.01 0 1.02 0 0 Z " fill="#A565ED" transform="translate(10,45)"/>
<path d="M0 0 C5.75 0.75 5.75 0.75 8 3 C7.34 4.32 6.68 5.64 6 7 C6 6.34 6 5.68 6 5 C4.68 4.67 3.36 4.34 2 4 C2 3.34 2 2.68 2 2 C1.34 1.34 0.68 0.68 0 0 Z " fill="#FF4BC5" transform="translate(38,6)"/>
<path d="M0 0 C2.6875 0.875 2.6875 0.875 5 2 C2.03312999 3.64826111 -0.65626525 4.44271087 -4 5 C-3 2 -3 2 0 0 Z " fill="#FF50C6" transform="translate(21,18)"/>
<path d="M0 0 C0.99 0.33 1.98 0.66 3 1 C2.625 3.9375 2.625 3.9375 2 7 C1.01 7.495 1.01 7.495 0 8 C-0.79953138 4.71303767 -1.09658936 3.28976808 0 0 Z " fill="#BF4BF7" transform="translate(56,37)"/>
<path d="M0 0 C1.98 0 3.96 0 6 0 C6 1.32 6 2.64 6 4 C4.02 3.34 2.04 2.68 0 2 C0 1.34 0 0.68 0 0 Z " fill="#AC6CEB" transform="translate(26,46)"/>
<path d="M0 0 C0.66 0.33 1.32 0.66 2 1 C1.01 1.33 0.02 1.66 -1 2 C-1 2.99 -1 3.98 -1 5 C-3.97 4.505 -3.97 4.505 -7 4 C-4.66603411 2.44402274 -2.57343171 1.07918104 0 0 Z " fill="#FF50C7" transform="translate(29,11)"/>
</svg>
